<?xml version="1.0" standalone="no"?>
<!DOCTYPE svg PUBLIC "-//W3C//DTD SVG 1.1//EN" "http://www.w3.org/Graphics/SVG/1.1/DTD/svg11.dtd" >
<svg xmlns="http://www.w3.org/2000/svg">
<metadata></metadata>
<defs>
<font id="corpoaligregular" horiz-adv-x="1057" >
<font-face units-per-em="2048" ascent="1638" descent="-410" />
<missing-glyph horiz-adv-x="512" />
<glyph horiz-adv-x="2048" />
<glyph horiz-adv-x="2048" />
<glyph unicode="&#xd;" horiz-adv-x="2048" />
<glyph unicode=" "  horiz-adv-x="512" />
<glyph unicode="&#x09;" horiz-adv-x="512" />
<glyph unicode="&#xa0;" horiz-adv-x="512" />
<glyph unicode="!" horiz-adv-x="479" d="M134 88q0 44 31 74q31 31 75 31q43 0 73 -31q31 -30 31 -74t-31 -74q-31 -31 -74 -31t-74 31t-31 74zM170 1331h138l-25 -939h-87z" />
<glyph unicode="&#x22;" horiz-adv-x="785" d="M187 1365h137l-19 -547h-99zM460 1365h137l-19 -547h-99z" />
<glyph unicode="#" horiz-adv-x="1248" d="M86 442l15 96h233l49 313h-232l15 97h233l66 417h110l-66 -417h310l66 417h111l-66 -417h232l-15 -97h-233l-49 -313h232l-15 -96h-233l-70 -442h-110l70 442h-310l-70 -442h-111l71 442h-233zM444 538h310l50 313h-310z" />
<glyph unicode="$" d="M111 -25v425h36q33 -205 151 -295q85 -64 196 -70v607q-125 51 -172 75q-95 50 -138 111q-54 77 -54 196q0 127 70 219q101 132 294 144v160h63v-160q134 -10 226 -106l64 108h23v-360h-34q-42 171 -125 239q-63 51 -154 62v-567q157 -66 203 -92q186 -107 186 -312 q0 -219 -198 -327q-84 -46 -191 -54v-160h-63v160q-163 9 -281 118l-79 -121h-23zM244 1055q0 -141 115 -204q40 -22 135 -62v541q-81 -9 -140 -51q-110 -79 -110 -224zM557 35q98 11 157 52q113 76 113 232q0 100 -53 167q-45 56 -161 107q-17 7 -56 23v-581z" />
<glyph unicode="%" horiz-adv-x="1196" d="M68 1048q0 149 74 239q73 89 192 89q112 0 179 -93q68 -94 68 -232q0 -140 -69 -233q-68 -94 -188 -94t-190 96q-66 91 -66 228zM157 0l804 1365h78l-804 -1365h-78zM169 1048q0 -280 154 -280q92 0 129 97q28 74 28 183q0 284 -155 284q-84 0 -123 -90q-33 -74 -33 -194 zM615 313q0 149 74 239q72 89 192 89q112 0 179 -93q68 -93 68 -232q0 -140 -69 -233q-69 -94 -188 -94q-120 0 -190 96q-66 91 -66 228zM716 314q0 -281 154 -281q91 0 129 97q28 73 28 183q0 284 -155 284q-84 0 -123 -90q-33 -74 -33 -193z" />
<glyph unicode="&#x26;" horiz-adv-x="1181" d="M76 342q0 151 127 274q61 58 165 130q-17 27 -75 113q-35 52 -54 94q-25 55 -25 123q0 109 73 184q81 82 205 82q111 0 182 -65q72 -68 72 -178q0 -111 -92 -221q-51 -62 -132 -139l345 -474q73 104 73 229q0 46 -35 61q-22 9 -73 12v51q80 -9 147 -9t147 9v-51 q-67 -5 -87 -17q-22 -15 -31 -77q-13 -96 -31 -151q-22 -63 -62 -122l52 -76q44 -65 70 -80q30 -14 106 -15v-35q-67 7 -117 7t-117 -7l-78 117q-45 -38 -86 -65q-111 -69 -244 -69q-199 0 -321 120q-104 102 -104 245zM204 344q0 -129 79 -213q83 -91 217 -91 q149 0 283 130l-359 494q-96 -63 -145 -120q-75 -86 -75 -200zM323 1113q0 -84 64 -177q51 -76 72 -108q73 63 116 116q67 83 67 169q0 74 -42 127t-112 53q-77 0 -125 -60q-40 -49 -40 -120z" />
<glyph unicode="'" horiz-adv-x="512" d="M187 1365h137l-19 -547h-99z" />
<glyph unicode="(" horiz-adv-x="608" d="M150 483q0 380 130 668q53 118 144 248h67q-202 -394 -202 -916q0 -524 202 -915h-67q-89 125 -144 248q-130 290 -130 667z" />
<glyph unicode=")" horiz-adv-x="608" d="M118 -432q202 390 202 915q0 522 -202 916h67q91 -130 144 -248q130 -288 130 -668q0 -377 -130 -667q-55 -123 -144 -248h-67z" />
<glyph unicode="*" d="M226 1077l29 90l232 -81l-6 245h95l-6 -245l232 81l29 -90l-235 -71l149 -194l-77 -56l-139 201l-140 -201l-77 56l149 194z" />
<glyph unicode="+" d="M116 640v102h360v355h106v-355h360v-102h-360v-354h-106v354h-360z" />
<glyph unicode="," horiz-adv-x="458" d="M87 -294q60 59 110 139q51 85 57 145h-7q-15 -6 -29 -6q-34 0 -57 21q-27 25 -27 66q0 40 29 67q29 28 73 28q54 0 83 -37q23 -31 23 -80q0 -149 -154 -343h-101z" />
<glyph unicode="-" horiz-adv-x="518" d="M0 516v86h518v-86h-518z" />
<glyph unicode="." horiz-adv-x="445" d="M123 82q0 42 29 71q30 29 72 29q40 0 69 -29t29 -70q0 -42 -29 -71t-70 -29t-71 29q-29 30 -29 70z" />
<glyph unicode="/" horiz-adv-x="793" d="M-173 -398l856 1763h89l-855 -1763h-90z" />
<glyph unicode="0" d="M115 660q0 328 117 522q104 172 306 172q124 0 218 -82q99 -85 148 -277q38 -150 38 -328q0 -279 -90 -472q-99 -212 -324 -212q-207 0 -307 183q-106 193 -106 494zM257 661q0 -284 72 -456q32 -78 85.5 -121.5t117.5 -43.5q98 0 166 99q102 150 102 523q0 302 -69 466 q-70 169 -208 169q-84 0 -151 -84q-115 -144 -115 -552z" />
<glyph unicode="1" d="M243 1130v41q123 9 210 72q81 64 103 160h50v-1236q0 -59 11 -80q14 -23 47.5 -34.5t108.5 -18.5v-40q-110 12 -233 12t-233 -12v40q84 7 117 22q42 19 48 59q2 14 2 52v963h-231z" />
<glyph unicode="2" d="M133 0v82q238 296 360 466q134 187 190 290q62 111 62 201q0 94 -60 158q-63 66 -168 66q-107 0 -188 -69q-83 -72 -106 -237h-56q15 179 73 260q48 67 131 103q78 34 169 34q140 0 233 -73q53 -41 83.5 -102.5t30.5 -126.5q0 -137 -134 -322q-129 -178 -488 -618h625 l-13 -112h-744z" />
<glyph unicode="3" d="M123 379h61q6 -101 29 -162q30 -76 97 -116q68 -40 160 -40q144 0 228 97q71 82 71 216q0 218 -154 283q-64 27 -201 31v67h19q96 2 161 40q125 76 125 241q0 112 -60 175q-61 64 -171 64q-231 0 -281 -268h-52q35 347 362 347q167 0 260 -103q79 -88 79 -213 q0 -138 -101 -227q-57 -50 -157 -78q314 -78 314 -352q0 -170 -116 -284q-114 -114 -297 -114q-181 0 -279 103q-91 96 -97 293z" />
<glyph unicode="4" d="M43 368l574 997h118v-891h227v-106h-227v-406h-132v406h-560zM168 474h435l3 776z" />
<glyph unicode="5" d="M150 303h58q9 -89 39 -138t86 -77t122 -28q151 0 236 128q74 109 74 272q0 168 -75 271q-76 105 -213 105q-172 0 -257 -156h-50l115 657h557l-12 -116h-500l-73 -413q98 108 253 108q179 0 284 -120q113 -129 113 -333q0 -194 -109 -332q-117 -148 -316 -148 q-303 0 -332 320z" />
<glyph unicode="6" d="M116 450q0 190 105 370q97 166 275 357q77 83 243 240l15 14h100q-287 -267 -447 -530q74 22 130 22q161 0 271 -116q121 -128 121 -348q0 -211 -109 -342q-113 -134 -293 -134q-169 0 -283 112q-128 127 -128 355zM260 455q0 -192 63 -301q65 -114 196 -114 q69 0 124.5 36.5t86.5 100.5q50 106 50 278q0 189 -63 297q-67 114 -198 114q-60 0 -112.5 -29.5t-83.5 -81.5q-63 -107 -63 -300z" />
<glyph unicode="7" d="M121 1212v125h816l-605 -1337h-126l597 1212h-682z" />
<glyph unicode="8" d="M145 369q0 235 233 329q-86 37 -129 88q-70 83 -70 209q0 155 95 254q101 105 264 105q151 0 244 -91q97 -97 97 -257q0 -215 -202 -308q235 -72 235 -325q0 -165 -98 -273q-107 -117 -289 -117q-166 0 -269 97q-111 104 -111 289zM282 359q0 -135 61 -223 q30 -44 79.5 -70t103.5 -26q57 0 109 28t84 77q57 87 57 215q0 130 -57 212q-66 97 -190 97q-122 0 -193 -109q-54 -81 -54 -201zM315 1013q0 -130 48 -203q25 -39 69 -61.5t93 -22.5q103 0 164 85q53 75 53 199q0 129 -47 202q-55 85 -163 85q-112 0 -173 -99 q-44 -72 -44 -185z" />
<glyph unicode="9" d="M153 882q0 204 98 334q104 138 278 138q156 0 262 -108q125 -128 125 -364q0 -210 -136 -436q-129 -215 -447 -543h-100q266 267 418 535q-72 -24 -128 -24q-151 0 -252 112q-118 132 -118 356zM294 891q0 -195 63 -308q61 -112 180 -112q60 0 110 30t78 83 q55 105 55 285q0 206 -62 317q-63 111 -187 111q-87 0 -150 -71q-87 -98 -87 -335z" />
<glyph unicode=":" horiz-adv-x="445" d="M123 82q0 42 29 71q30 29 72 29q40 0 69 -29t29 -70q0 -42 -29 -71t-70 -29t-71 29q-29 30 -29 70zM123 776q0 42 29 71q30 29 72 29q40 0 69 -29t29 -70q0 -42 -29 -71t-70 -29q-42 0 -71 29t-29 70z" />
<glyph unicode=";" horiz-adv-x="458" d="M87 -294q60 59 110 139q51 85 57 145h-7q-15 -6 -29 -6q-34 0 -57 21q-27 25 -27 66q0 40 29 67q29 28 73 28q54 0 83 -37q23 -31 23 -80q0 -149 -154 -343h-101zM135 776q0 42 29 71q30 29 72 29q40 0 69 -29t29 -70q0 -42 -29 -71t-70 -29q-42 0 -71 29t-29 70z" />
<glyph unicode="&#x3c;" horiz-adv-x="1024" d="M91 683v11l843 547v-60l-680 -446l680 -453v-158z" />
<glyph unicode="=" d="M116 510v106h826v-106h-826zM116 767v106h826v-106h-826z" />
<glyph unicode="&#x3e;" horiz-adv-x="1024" d="M91 124v60l680 446l-680 452v159l843 -559v-11z" />
<glyph unicode="?" horiz-adv-x="748" d="M78 997q0 107 33 174q43 86 134 131q80 40 172 40q98 0 167 -46q56 -36 88.5 -99.5t32.5 -135.5q0 -91 -47 -166q-31 -49 -79 -91q-15 -13 -68 -57q-97 -81 -131 -153q-30 -65 -30 -147q0 -33 7 -78h-85q-12 75 -12 119q0 106 45 186q28 51 76 97l63 60q125 118 125 227 q0 101 -75 153q-46 32 -114 32q-122 0 -194 -84q-53 -61 -63 -162h-45zM226 88q0 45 31 75q31 31 76 31q42 0 73 -31t31 -74q0 -44 -31 -75t-74 -31q-44 0 -75 31t-31 74z" />
<glyph unicode="@" horiz-adv-x="1435" d="M45 675q0 216 117 395q106 163 282 246q146 70 312 70q272 0 464 -174q171 -154 171 -397q0 -215 -136 -366q-84 -94 -191 -139q-62 -26 -115 -26q-87 0 -125 56q-20 30 -29 93q-48 -61 -84 -89q-64 -50 -145 -50q-117 0 -195 88q-66 75 -66 192q0 191 141 326 q126 122 282 122q134 0 171 -158l37 140h123l-142 -532q-13 -48 -13 -68q0 -28 16 -50q21 -27 55 -27q55 0 129 53q108 77 164 212q48 115 48 227q0 210 -172 355q-164 137 -386 137q-254 0 -429 -159q-93 -85 -147 -206q-56 -127 -56 -268q0 -239 147 -408q81 -93 203 -150 q141 -66 302 -66q178 0 330 104q83 57 136 126q19 23 51 73h84q-49 -88 -91 -137.5t-110 -100.5q-188 -140 -412 -140q-233 0 -422 125q-159 106 -237 280q-62 138 -62 291zM430 534q0 -74 32 -128q43 -71 121 -71q127 0 213 198q68 157 68 296q0 59 -24 98q-33 54 -107 54 q-81 0 -159 -83q-78 -84 -119 -215q-25 -80 -25 -149z" />
<glyph unicode="A" horiz-adv-x="1288" d="M20 -6v40q84 6 117 23q34 20 63 98l471 1250l412 -1258q27 -81 78 -96q33 -11 106 -17v-40q-132 16 -227 16t-227 -16v40q125 12 125 63q0 27 -12 67l-76 241h-488l-73 -210q-25 -73 -25 -98q0 -42 57 -55q25 -5 74 -8v-40q-110 11 -188 11t-187 -11zM383 462h449 l-207 661z" />
<glyph unicode="B" horiz-adv-x="1144" d="M70 0v40q84 7 117 22q42 19 47 59q3 14 3 52v1019q0 59 -11 80q-18 34 -86 45q-26 5 -70 8v40h516q181 0 275 -77q114 -93 114 -254q0 -135 -92 -227q-48 -48 -126 -80q100 -23 157 -67q127 -96 127 -269q0 -127 -76 -233q-81 -113 -223 -144q-62 -14 -171 -14h-501z M374 170q0 -70 23 -91q28 -22 116 -22h75q129 0 207 69q98 87 98 256q0 154 -79 234q-69 70 -226 70h-214v-516zM374 743h152q109 0 160 22q141 63 141 264q0 136 -60 208q-58 71 -202 71h-191v-565z" />
<glyph unicode="C" horiz-adv-x="1197" d="M104 687q0 319 157 522q73 94 188 143q87 36 188 36q182 0 307 -113l74 108h34v-377h-40q-83 325 -358 325q-207 0 -304 -180q-98 -180 -98 -468q0 -267 87 -441q47 -94 128 -145.5t181 -51.5q132 0 225 90q105 102 117 315h76q-7 -149 -59 -254t-153 -163 q-97 -56 -219 -56q-161 0 -290 96q-130 97 -194 297q-47 147 -47 317z" />
<glyph unicode="D" horiz-adv-x="1284" d="M59 0v40q84 7 117 22q42 19 47 59q3 14 3 52v1019q0 59 -11 80q-18 34 -86 45q-26 5 -70 8v40h472q186 0 290 -45q174 -74 275 -274q84 -168 84 -366q0 -228 -110 -411q-113 -188 -309 -244q-87 -25 -207 -25h-495zM363 164q0 -55 8 -72q16 -31 70 -37q23 -3 71 -3 q520 0 520 626q0 332 -147 501q-111 129 -343 129h-179v-1144z" />
<glyph unicode="E" horiz-adv-x="1082" d="M70 0v40q84 7 117 22q42 19 47 59q3 14 3 52v1019q0 59 -11 80q-18 34 -86 45q-26 5 -70 8v40h859l28 -287h-40q-27 102 -59 153q-29 46 -70 63q-34 14 -100 14h-314v-569h318q56 0 77 18q38 36 42 150h41v-396h-41q-2 70 -19 113q-24 57 -100 58h-318v-499q0 -58 9 -75 q24 -50 135 -51h160q87 0 127 17q84 30 133 237h40l-40 -311h-868z" />
<glyph unicode="F" horiz-adv-x="1038" d="M81 -6v40q83 7 117 22q42 19 47 59q3 15 3 52v1025q0 59 -11 80q-18 34 -86 45q-26 5 -70 8v40h859l28 -287h-40q-27 102 -59 153q-29 46 -70 63q-34 14 -100 14h-314v-569h318q56 0 77 18q38 36 42 150h41v-396h-41q-2 70 -19 113q-24 57 -100 58h-318v-515 q0 -59 11 -80q14 -24 47.5 -35t108.5 -18v-40q-154 16 -236 16t-235 -16z" />
<glyph unicode="G" horiz-adv-x="1268" d="M104 692q0 310 139 499q145 198 394 198q170 0 305 -110l87 110h34v-383h-40q-35 112 -77 177q-46 70 -121.5 109t-166.5 39q-156 0 -256 -105q-150 -156 -150 -540q0 -260 76 -434q45 -102 128 -160q84 -58 197 -58q136 0 297 88v342q0 35 -10.5 52t-37.5 27 q-39 13 -114 18v40q143 -12 218 -12q74 0 219 12v-40q-94 -7 -122 -22q-22 -12 -27 -38q-1 -6 -1 -40v-347q-238 -137 -438 -137q-122 0 -225.5 54t-172.5 154q-135 197 -135 507z" />
<glyph unicode="H" horiz-adv-x="1359" d="M70 -6v40q83 7 117 22q42 19 47 59q3 15 3 52v1031q0 59 -11 80q-29 44 -156 53v40q153 -16 235 -16t236 16v-40q-82 -6 -118 -22q-41 -19 -46 -59q-3 -14 -3 -52v-457h611v457q0 59 -11 80q-29 44 -156 53v40q154 -16 235 -16q82 0 236 16v-40q-82 -6 -118 -22 q-41 -19 -47 -59q-2 -14 -2 -52v-1031q0 -59 11 -80q14 -24 47.5 -35t108.5 -18v-40q-154 16 -236 16t-235 -16v40q84 7 117 22q42 19 47 59q3 15 3 52v517h-611v-517q0 -59 11 -80q14 -24 47.5 -35t108.5 -18v-40q-154 16 -236 16t-235 -16z" />
<glyph unicode="I" horiz-adv-x="611" d="M70 -6v40q83 7 117 22q42 19 47 59q3 15 3 52v1031q0 59 -11 80q-29 44 -156 53v40q153 -16 235 -16t236 16v-40q-82 -6 -118 -22q-41 -19 -46 -59q-3 -14 -3 -52v-1031q0 -59 11 -80q14 -24 47.5 -35t108.5 -18v-40q-154 16 -236 16t-235 -16z" />
<glyph unicode="J" horiz-adv-x="605" d="M-7 -92h21q112 0 165 44q42 34 53 110q5 35 5 105v1031q0 64 -10 81q-29 44 -157 52v40q154 -16 236 -16q81 0 235 16v-40q-78 -6 -118 -22q-43 -20 -47 -59q-2 -13 -2 -52v-969q0 -131 -21 -189q-41 -109 -153 -156q-64 -27 -146 -27q-21 0 -61 2v49z" />
<glyph unicode="K" horiz-adv-x="1259" d="M70 -6v40q83 7 117 22q42 19 47 59q3 15 3 52v1031q0 59 -11 80q-29 44 -156 53v40q153 -16 237 -16q86 0 228 16v-40q-82 -6 -118 -22q-41 -19 -47 -59q-2 -14 -2 -52v-471l471 518q25 27 25 45q0 30 -53 36q-27 3 -71 5v40q112 -10 204 -10q91 0 203 10v-40 q-74 -4 -118 -16q-60 -17 -124 -88l-385 -428l479 -644q59 -79 122 -102q45 -15 112 -19v-40q-146 16 -251 16q-104 0 -249 -16v40q57 5 88 11q56 9 56 43q0 19 -38 73l-402 559l-72 -77v-476q0 -59 11 -80q19 -34 86 -45q25 -4 70 -8v-40q-136 16 -224 16q-85 0 -238 -16z " />
<glyph unicode="L" horiz-adv-x="999" d="M70 0v40q84 7 117 22q42 19 47 59q3 14 3 52v1025q0 59 -11 80q-29 44 -156 53v40q153 -16 235 -16t236 16v-40q-82 -6 -118 -22q-41 -19 -46 -59q-3 -14 -3 -52v-1007q0 -58 9 -75q25 -50 135 -51h160q88 1 128 16q84 30 133 230h39l-39 -311h-869z" />
<glyph unicode="M" horiz-adv-x="1633" d="M70 -6v40q86 7 119 23q42 18 48 111l52 1030v15q0 46 -11 66q-24 42 -157 52v40q91 -7 144 -7q87 0 178 10l384 -1088l392 1088q118 -10 178 -10q52 0 143 7v-40q-80 -6 -118 -22q-50 -23 -49 -93v-18l22 -1030q2 -60 14 -81q25 -43 154 -53v-40q-155 16 -236 16 t-236 -16v40q72 4 119 22q40 16 47 59q2 12 2 34v18l-17 1091l-435 -1218h-26l-428 1218l-49 -1090v-18q0 -30 5 -48q7 -22 27 -36q37 -24 135 -32v-40q-138 11 -201 11q-62 0 -200 -11z" />
<glyph unicode="N" horiz-adv-x="1362" d="M67 1331v40q84 -7 158 -7q68 0 137 7l703 -1094v921q0 64 -10 81q-28 44 -157 52v40q152 -11 205 -11q58 0 194 11v-40q-77 -6 -117 -22q-44 -20 -48 -59q-2 -13 -2 -52v-1242h-23l-805 1264v-1053q0 -63 10 -81q29 -43 157 -52v-40q-154 11 -205 11q-56 0 -194 -11v40 q79 6 117 23q44 19 48 58q2 13 2 52v1110q-29 33 -73 43q-36 7 -97 11z" />
<glyph unicode="O" horiz-adv-x="1266" d="M104 686q0 281 116 469q142 233 421 233q178 0 312 -120q118 -105 172 -295q38 -132 38 -289q0 -284 -121 -482q-138 -225 -402 -225q-183 0 -317 113q-123 104 -180 304q-39 134 -39 292zM252 686q0 -254 79 -432q47 -105 128.5 -163.5t180.5 -58.5q147 0 242 121 q75 96 109 270q24 118 24 260q0 255 -75 426q-99 225 -313 225q-141 0 -241 -125q-134 -166 -134 -523z" />
<glyph unicode="P" horiz-adv-x="1082" d="M70 -6v40q83 7 117 22q42 19 47 59q3 15 3 52v1025q0 59 -11 80q-18 34 -86 45q-26 5 -70 8v40h516q105 0 173.5 -17.5t122.5 -56.5q66 -49 104 -129.5t38 -170.5q0 -185 -145 -287q-105 -74 -275 -74h-230v-463q0 -59 11 -80q14 -24 47.5 -35t108.5 -18v-40 q-154 16 -236 16t-235 -16zM374 687h192q140 0 212 57q108 85 108 259q0 151 -80 234q-45 47 -110 60q-51 11 -115 11h-207v-621z" />
<glyph unicode="Q" horiz-adv-x="1266" d="M104 690q0 274 115 464q65 109 170 170q108 64 244 64q186 0 319 -119q118 -105 172 -295q39 -133 39 -293q0 -271 -114 -467q130 -196 215 -196h7v-41h-42q-110 0 -192 61q-33 25 -74 64q-129 -125 -323 -125q-181 0 -316 113q-124 104 -181 303q-39 136 -39 297z M252 688q0 -256 80 -435q47 -105 128 -163t181 -58q147 0 242 121q74 97 109 271q23 116 23 257q0 256 -76 428q-99 225 -312 225q-142 0 -243 -125q-132 -166 -132 -521z" />
<glyph unicode="R" horiz-adv-x="1185" d="M70 -6v40q83 7 117 22q42 19 47 59q3 15 3 52v1025q0 59 -11 80q-18 34 -86 45q-26 5 -70 8v40h528q171 0 269 -65q67 -45 108 -122q43 -80 43 -167q0 -135 -93 -232q-91 -95 -246 -113q43 -9 81 -38q44 -32 86 -129l153 -355q35 -79 72 -96q27 -11 94 -14v-40 q-75 6 -121 6t-121 -6l-218 506q-32 74 -60 106q-42 49 -132 54q-31 2 -51 2h-88v-495q0 -59 11 -80q14 -24 47.5 -35t108.5 -18v-40q-154 16 -236 16t-235 -16zM374 719h195q140 0 217 66q94 80 94 236q0 287 -301 287h-205v-589z" />
<glyph unicode="S" horiz-adv-x="1037" d="M121 -25v425h39q62 -360 363 -360q135 0 214 83q77 81 77 202q0 96 -54 158q-37 44 -172 112q-29 15 -157 78q-156 78 -212 135q-76 78 -76 215q0 161 102 260q103 99 272 99q148 0 252 -101l59 108h34v-360h-40q-27 105 -65 169q-75 127 -232 127q-119 0 -195 -82 q-73 -78 -73 -183q0 -121 122 -196q52 -31 204 -106q174 -85 238 -135q112 -88 112 -256q0 -175 -116 -282q-111 -102 -284 -102q-176 0 -307 113l-71 -121h-34z" />
<glyph unicode="T" horiz-adv-x="1040" d="M38 1078l51 287h860l54 -287h-42q-32 109 -60 153q-29 47 -67 64q-31 13 -97 13h-154v-1141q0 -63 10 -81q29 -43 157 -52v-40q-153 16 -235 16t-236 -16v40q79 6 118 23q43 19 47 58q2 13 2 52v1141h-128q-72 0 -109 -17q-56 -26 -96 -120q-15 -36 -33 -93h-42z" />
<glyph unicode="U" horiz-adv-x="1340" d="M59 1331v40q153 -16 235 -16t236 16v-40q-82 -6 -118 -22q-41 -19 -46 -59q-3 -14 -3 -52v-799q0 -132 25 -184q41 -87 138 -128q73 -31 171 -31q103 0 183 34.5t121 97.5q49 73 49 207v803q0 59 -11 80q-29 44 -156 53v40q152 -11 205 -11q57 0 194 11v-40 q-82 -6 -117 -22q-42 -19 -48 -59q-2 -14 -2 -52v-782q0 -97 -14 -157.5t-49 -111.5q-117 -170 -383 -170q-223 0 -348 132q-68 73 -85 163q-10 53 -10 130v796q0 59 -11 80q-29 44 -156 53z" />
<glyph unicode="V" horiz-adv-x="1295" d="M20 1331v40q120 -16 227 -16q108 0 228 16v-40q-135 -10 -135 -62q0 -13 12 -50l329 -1002l331 971q19 56 19 79q0 40 -53 53q-30 7 -85 11v40q101 -13 182 -13q79 0 199 13v-40q-70 -5 -105 -16q-53 -18 -71 -72l-432 -1266h-49l-409 1239q-16 46 -31 67q-29 39 -157 48 z" />
<glyph unicode="W" horiz-adv-x="1761" d="M38 1331v40q114 -16 217 -16t218 16v-40q-136 -9 -136 -60q0 -14 9 -47l245 -929l305 1093h47l302 -1093l248 926q10 37 10 54q0 35 -50 47q-32 7 -78 9v40q96 -12 175 -12q78 0 174 12v-40q-70 -3 -99 -15q-43 -18 -59 -75l-347 -1260h-35l-303 1139l-317 -1143h-34 l-332 1253q-17 63 -60 84q-35 13 -100 17z" />
<glyph unicode="X" horiz-adv-x="1240" d="M20 -6v40q85 1 132 34q43 32 98 123l313 513l-274 512q-28 51 -44 67q-40 39 -155 48v40q126 -13 232 -13t233 13v-40q-44 -4 -78 -10q-60 -12 -60 -46q0 -20 21 -60l205 -380l240 393q18 29 18 49q0 36 -50 46q-25 5 -79 8v40q97 -12 193 -12q97 0 194 12v-40 q-78 -7 -117 -22q-44 -17 -79 -75l-285 -465l332 -624q38 -71 76 -90q34 -15 121 -21v-40q-147 15 -239 15t-238 -15v40q52 5 84 10q61 11 61 51q0 22 -23 65l-255 478l-296 -491q-24 -39 -24 -58q0 -40 57 -49q26 -4 77 -6v-40q-109 10 -195 10t-196 -10z" />
<glyph unicode="Y" horiz-adv-x="1185" d="M26 1331v40q138 -14 234 -14t234 14v-40q-50 -3 -89 -10q-58 -10 -58 -45q0 -16 19 -53l276 -548l277 557q14 28 14 45q0 35 -58 45q-35 6 -86 9v40q110 -12 188 -12q77 0 187 12v-40q-71 -9 -103 -20q-48 -18 -81 -84l-314 -629v-431q0 -64 10 -81q29 -43 157 -52v-40 q-155 16 -236 16q-82 0 -235 -16v40q79 7 118 23q43 19 47 58q2 13 2 52v431l-317 631q-35 68 -80 85q-33 11 -106 17z" />
<glyph unicode="Z" horiz-adv-x="1073" d="M70 0l757 1308h-398q-77 -1 -116 -21q-85 -44 -116 -202h-46l53 280h810l-757 -1308h416q96 0 132 15q82 33 157 233h41l-58 -305h-875z" />
<glyph unicode="[" horiz-adv-x="608" d="M220 -398v1763h331v-61h-204v-1641h204v-61h-331z" />
<glyph unicode="\" horiz-adv-x="793" d="M20 1365h90l855 -1763h-89z" />
<glyph unicode="]" horiz-adv-x="608" d="M57 -337h204v1641h-204v61h331v-1763h-331v61z" />
<glyph unicode="^" horiz-adv-x="1024" d="M-47 591l559 843h11l547 -843h-60l-446 680l-452 -680h-159z" />
<glyph unicode="_" horiz-adv-x="1024" d="M56 -178h912v-66h-912v66z" />
<glyph unicode="`" horiz-adv-x="1024" d="M241 1438h163l231 -308h-92z" />
<glyph unicode="a" horiz-adv-x="925" d="M86 246q0 182 234 281q132 56 298 77v115q0 109 -33 153q-46 61 -143 61q-77 0 -138 -40q-38 -25 -45 -61q-2 -13 -2 -60q0 -88 -73 -88q-58 0 -58 60q0 89 87 160q98 80 235 80q92 0 167 -41q93 -50 118 -140q13 -46 13 -116v-442q0 -109 17 -156q17 -44 66 -44 q20 0 51 6v-52q-56 -10 -100 -10q-82 0 -115 64q-20 38 -26 107q-42 -75 -78 -109q-73 -68 -195 -68q-123 0 -201 73q-79 75 -79 190zM217 247q0 -89 53 -139q48 -45 127 -45q145 0 196 127q25 62 25 192v170q-147 -25 -250 -76q-151 -75 -151 -229z" />
<glyph unicode="b" horiz-adv-x="1013" d="M23 1306v29q154 15 273 47v-582q36 72 76 111q73 73 186 73q168 0 271 -147q98 -140 98 -355q0 -218 -104 -358q-103 -141 -268 -141q-177 0 -267 179l-70 -185h-50v1219q0 63 -15 82q-23 28 -130 28zM294 465q0 -178 47 -285q28 -65 88 -106q50 -34 111 -34q92 0 159 76 q91 105 91 363q0 448 -248 448q-62 0 -113.5 -36.5t-79.5 -101.5q-55 -124 -55 -324z" />
<glyph unicode="c" horiz-adv-x="869" d="M87 476q0 244 120 388q106 126 268 126q85 0 145 -40q22 -14 52 -45l52 103h34v-320h-40q-19 88 -49 139q-30 52 -79.5 82t-106.5 30q-127 0 -191 -134q-60 -128 -60 -328q0 -434 245 -434q186 0 224 273h81q-12 -111 -55 -188q-83 -148 -256 -148q-167 0 -273 130 q-111 135 -111 366z" />
<glyph unicode="d" horiz-adv-x="1022" d="M87 482q0 215 95 355q101 147 265 147q111 0 180 -73q38 -39 74 -111v396q0 63 -15 82q-24 28 -130 28v29q154 15 272 47v-1181q0 -84 20 -112q23 -27 110 -29l16 -1v-29q-160 -19 -242 -47q-18 87 -24 179q-85 -179 -258 -179q-161 0 -262 141q-101 140 -101 358z M224 481q0 -181 48 -298q27 -65 79.5 -104t114.5 -39q84 0 148 70q89 98 89 353q0 464 -247 464q-89 0 -148 -74q-84 -105 -84 -372z" />
<glyph unicode="e" horiz-adv-x="921" d="M87 476q0 239 107 379q103 135 280 135q143 0 237 -88q122 -114 121 -384h-618q0 -191 41 -300q66 -175 238 -175q154 0 222 136q27 55 38 139h82q-11 -113 -67 -200q-91 -139 -274 -139q-197 0 -300 127q-107 131 -107 370zM220 591h486q-6 111 -30 182 q-57 165 -205 165q-155 0 -222 -202q-20 -61 -29 -145z" />
<glyph unicode="f" horiz-adv-x="581" d="M64 -6v35q58 2 96 13q40 12 47 43q4 14 4 48v760h-139v59q84 3 112 17q26 14 32 49q3 14 5 60q3 87 16 138q21 84 101 132q67 40 154 40q91 0 141 -50q40 -39 40 -90q0 -70 -69 -70q-29 0 -48 18q-16 16 -16 39q0 8 2 26q1 10 1 19q0 58 -65 58q-85 0 -121 -86 q-19 -45 -19 -172v-113h236v-74h-236v-760q0 -51 14 -70q21 -29 133 -34v-35q-131 12 -210 12q-80 0 -211 -12z" />
<glyph unicode="g" horiz-adv-x="1000" d="M63 -104q0 155 218 228q-111 35 -111 107q0 105 229 157q-123 32 -186.5 107t-63.5 188q0 142 95 221q95 80 258 80q118 0 207 -53h270v-74l-203 8q47 -78 47 -168q0 -153 -121 -242q-59 -42 -211 -88q-93 -29 -145 -47q-75 -26 -75 -68q0 -43 58 -56q21 -5 120 -12 q219 -17 296 -45q177 -62 177 -226q0 -64 -31 -124.5t-83 -98.5q-120 -88 -316 -88q-167 0 -287 66q-66 36 -104 97t-38 131zM141 -129q0 -99 101 -154q105 -57 248 -57q151 0 248 60q39 25 62.5 66t23.5 86q0 103 -100 147q-94 42 -239 42q-149 0 -252 -54 q-92 -48 -92 -136zM274 683q0 -100 46 -166q59 -84 166 -84t166 83q46 65 46 170q0 102 -41 165q-53 82 -170 82q-99 0 -155 -66q-58 -67 -58 -184z" />
<glyph unicode="h" horiz-adv-x="1068" d="M47 -6v35q58 2 96 13q40 12 47 43q4 14 4 48v1063q0 63 -15 82q-24 28 -130 28v29q154 15 272 47v-541q98 143 257 143q162 0 247 -128q49 -74 49 -223v-500q0 -51 14 -70q21 -30 133 -34v-35q-132 12 -213 12t-212 -12v35q58 1 99 13q40 12 47 43q4 14 4 48v497 q0 132 -33 186q-50 81 -161 81q-116 0 -184 -88q-47 -60 -47 -188v-488q0 -51 14 -70q21 -29 133 -34v-35q-132 12 -211 12q-78 0 -210 -12z" />
<glyph unicode="i" horiz-adv-x="539" d="M64 -6v35q58 2 96 13q40 12 47 43q4 14 4 48v682q0 63 -15 83q-24 26 -130 27v29q152 15 272 47v-868q0 -51 14 -70q21 -29 133 -34v-35q-131 12 -210 12q-80 0 -211 -12zM184 1254q0 41 28 69q29 28 70 28q39 0 67 -28t28 -68q0 -41 -28 -69t-68 -28q-41 0 -69 28 q-28 29 -28 68z" />
<glyph unicode="j" horiz-adv-x="528" d="M-48 -375q129 23 189 92q65 76 65 229v869q0 63 -15 83q-24 26 -131 27v29q152 15 273 47v-976v-11q0 -431 -379 -431h-2v42zM165 1254q0 41 28 69q29 28 70 28q38 0 67 -28q28 -28 28 -68q0 -41 -28 -69q-29 -28 -68 -28q-40 0 -69 28q-28 29 -28 68z" />
<glyph unicode="k" horiz-adv-x="1045" d="M47 -6v35q58 2 96 13q40 12 47 43q4 14 4 48v1063q0 63 -15 82q-24 28 -130 28v29q154 15 272 47v-908l359 372q28 29 28 46q0 42 -106 47v34q101 -10 180 -10q80 0 182 10v-34q-70 -6 -104 -19q-40 -16 -93 -71l-210 -218l300 -504q40 -67 79 -82q35 -13 102 -16v-35 q-111 11 -191 11q-79 0 -191 -11v35q32 1 51 4q35 6 35 31q0 15 -19 47l-251 438l-151 -152v-264q0 -51 14 -70q21 -29 133 -34v-35q-132 12 -211 12q-78 0 -210 -12z" />
<glyph unicode="l" horiz-adv-x="532" d="M64 -6v35q58 2 96 13q40 12 47 43q4 14 4 48v1063q0 63 -15 82q-24 28 -130 28v29q154 15 272 47v-1249q0 -51 14 -70q21 -29 133 -34v-35q-131 12 -210 12q-80 0 -211 -12z" />
<glyph unicode="m" horiz-adv-x="1591" d="M64 -6v35q58 2 96 13q40 12 47 43q4 14 4 48v664q-1 87 -16 103q-19 14 -127 18v28q142 21 246 62q12 -85 13 -178q38 56 72 85q81 69 202 69q115 0 182 -63q35 -33 62 -96q36 54 69 85q81 74 210 74q173 0 238 -122q34 -63 34 -205v-524q0 -51 14 -70q21 -29 133 -34 v-35q-131 12 -210 12q-80 0 -211 -12v35q58 2 96 13q40 12 47 43q4 14 4 48v527q0 113 -24 158q-42 79 -155 79q-129 0 -187 -95q-36 -59 -36 -166v-503q0 -51 14 -70q21 -29 133 -34v-35q-132 12 -211 12t-209 -12v35q58 2 95 13q40 12 47 43q4 14 4 48v522q0 117 -26 164 q-44 78 -148 78q-126 0 -188 -99q-40 -62 -40 -192v-473q0 -51 14 -70q21 -29 133 -34v-35q-132 12 -211 12t-210 -12z" />
<glyph unicode="n" horiz-adv-x="1085" d="M64 -6v35q58 2 96 13q40 12 47 43q4 14 4 48v664q-1 87 -16 103q-19 14 -127 18v28q142 21 246 62q9 -60 14 -181q104 157 267 157t247 -128q49 -74 49 -223v-500q0 -51 14 -70q21 -30 133 -34v-35q-132 12 -213 12t-212 -12v35q58 1 99 13q40 12 47 43q4 14 4 48v497 q0 132 -33 186q-50 81 -161 81q-116 0 -184 -88q-47 -60 -47 -188v-488q0 -51 14 -70q21 -29 133 -34v-35q-132 12 -211 12t-210 -12z" />
<glyph unicode="o" horiz-adv-x="934" d="M87 482q0 231 110 371q108 137 283 137q168 0 266 -142q101 -147 101 -361q0 -217 -102 -363q-48 -68 -121.5 -106t-157.5 -38q-177 0 -281 148q-98 141 -98 354zM224 482q0 -189 46 -305q28 -71 87 -113q46 -32 107 -32q96 0 159 80q87 110 87 369q0 457 -243 457 q-86 0 -149 -74q-94 -111 -94 -382z" />
<glyph unicode="p" horiz-adv-x="1044" d="M53 -377q61 3 96 13q40 12 47 44q4 13 4 48v1088q0 81 -39 101q-28 10 -107 14v28q158 12 242 31q16 -63 24 -185q88 179 266 179q165 0 269 -140q103 -141 103 -359q0 -215 -98 -355q-103 -147 -271 -147q-114 0 -186 72q-39 40 -76 112v-439q0 -52 14 -70 q23 -29 132 -35v-34q-134 12 -209 12t-211 -12v34zM325 500q0 -197 55 -323q60 -137 197 -137q244 0 244 443q0 187 -50 301q-29 67 -83.5 105t-120.5 38q-83 0 -149 -70q-93 -98 -93 -357z" />
<glyph unicode="q" horiz-adv-x="1044" d="M87 485q0 218 103 359q104 140 269 140q179 0 266 -179q8 124 24 185q84 -18 242 -31v-28q-23 -1 -31 -1q-46 -2 -68 -10t-33 -27q-14 -22 -14 -77v-1088q0 -52 15 -70q22 -30 132 -35v-34q-135 12 -211 12q-75 0 -209 -12v34q61 3 95 13q39 12 47 44q4 14 4 48v439 q-37 -72 -76 -112q-72 -72 -186 -72q-168 0 -271 147q-98 140 -98 355zM224 485q0 -445 244 -445q137 0 197 137q55 126 55 321q0 184 -47 290q-29 65 -88 105q-50 34 -115 34q-88 0 -155 -76q-91 -105 -91 -366z" />
<glyph unicode="r" horiz-adv-x="737" d="M64 -6v35q58 2 96 13q40 12 47 43q4 14 4 48v664q-1 57 -3 75q-6 42 -60 49q-29 3 -80 4v29q142 15 246 47q11 -106 15 -200q17 56 53 101q70 88 182 88q80 0 128 -50q41 -44 41 -104q0 -40 -18 -66q-21 -30 -60 -30q-33 0 -55 20q-21 19 -21 48q0 9 6 37q2 7 2 14 q0 22 -19 36q-18 14 -45 14q-98 0 -150 -135q-35 -89 -35 -229v-412q0 -51 14 -70q21 -29 133 -34v-35q-131 12 -211 12q-79 0 -210 -12z" />
<glyph unicode="s" horiz-adv-x="853" d="M105 -20v332h39q21 -91 49 -144q30 -59 92 -94q60 -34 132 -34q103 0 168 61q58 56 58 135q0 64 -43 104q-34 31 -130 72q-25 10 -146 60q-115 48 -153 94q-46 55 -46 149q0 118 81 192q85 77 215 77q100 0 201 -59l28 75h34v-310h-40q-25 243 -216 243q-93 0 -151 -61 q-49 -50 -49 -120q0 -62 42 -103q30 -30 129 -72q25 -10 141 -57q106 -43 150 -86q60 -60 60 -160q0 -118 -81 -199q-91 -92 -241 -92q-132 0 -242 79l-47 -82h-34z" />
<glyph unicode="t" horiz-adv-x="612" d="M60 893v59q55 4 92 23q93 55 131 280h42v-288h249v-74h-249v-592q0 -126 19 -174q27 -71 108 -71q54 0 135 34v-52q-98 -55 -186 -55q-110 0 -164 68q-47 60 -47 188l1 90v564h-131z" />
<glyph unicode="u" horiz-adv-x="1063" d="M35 925v29q152 15 273 47v-675q0 -128 36 -182q49 -74 162 -74q125 0 185 88q44 64 44 204v453q0 63 -15 83q-24 26 -130 27v29q153 15 272 47v-840q0 -50 9 -68q13 -29 73 -32q28 -2 69 -2v-28q-149 -13 -256 -48q-5 45 -8 188q-38 -76 -80 -116q-76 -72 -193 -72 q-165 0 -246 115q-50 71 -50 226v491q0 63 -15 83q-24 26 -130 27z" />
<glyph unicode="v" horiz-adv-x="970" d="M-6 939v34q139 -11 205 -11q75 0 187 11v-34q-34 -2 -58 -6q-53 -8 -53 -45q0 -14 10 -41l237 -675l236 669q15 43 15 56q0 30 -42 36q-20 3 -60 6v34q116 -9 155 -9q41 0 149 9v-34q-69 -4 -97 -18q-33 -17 -56 -82l-306 -862h-57l-306 868q-15 43 -29 58q-25 26 -77 32 q-18 2 -53 4z" />
<glyph unicode="w" horiz-adv-x="1415" d="M18 939v34q111 -10 190 -10q78 0 190 10v-34q-54 -2 -83 -10q-39 -10 -39 -38q0 -8 8 -38l182 -643l245 780h57l243 -786l187 643q9 32 9 46q0 33 -46 40q-22 4 -68 6v34q99 -8 169 -8q69 0 146 8v-34q-60 -2 -89 -12q-41 -16 -57 -71l-253 -879h-57l-244 794l-247 -794 h-57l-248 867q-19 65 -50 80q-25 11 -88 15z" />
<glyph unicode="x" horiz-adv-x="1021" d="M32 -6v35q67 2 100 18q35 20 81 89l239 355l-210 366q-32 55 -74 69q-31 10 -91 13v34q123 -11 195 -11q73 0 195 11v-34q-95 -4 -95 -42q0 -10 17 -41l142 -249l160 236q25 37 25 54q0 29 -44 36q-23 4 -63 6v34q104 -8 167 -8q64 0 168 8v-34q-63 -2 -95 -12 q-41 -14 -83 -75l-204 -298l249 -430q39 -67 76 -83q30 -11 102 -12v-35q-124 12 -206 12q-81 0 -207 -12v35q38 2 61 6q47 8 47 37q0 14 -19 48l-182 316l-195 -291q-32 -47 -32 -68q0 -34 49 -42q22 -4 69 -6v-35q-124 9 -171 9q-49 0 -171 -9z" />
<glyph unicode="y" horiz-adv-x="994" d="M15 939v34q107 -10 190 -10t190 10v-34q-32 -3 -58 -7q-49 -8 -49 -37q0 -13 14 -52l231 -633l236 631q13 35 13 49q0 34 -46 42q-28 5 -73 7v34q73 -8 147 -8q80 0 181 8v-34q-53 -7 -83 -15q-49 -16 -68 -68l-382 -1026q-30 -82 -65.5 -128.5t-86.5 -70.5 q-59 -28 -144 -28h-6v99q81 1 135 30q71 37 119 155l58 148l-301 824q-22 57 -60 69q-29 7 -92 11z" />
<glyph unicode="z" horiz-adv-x="903" d="M76 0l576 919h-265q-113 -1 -159 -62q-24 -30 -68 -141h-35l44 251h659l-578 -919h276q54 0 81 6t50 24q73 54 118 200h35l-51 -278h-683z" />
<glyph unicode="{" horiz-adv-x="608" d="M114 507q53 12 86 41q41 37 41 121v510q0 146 81 191q43 24 98 28q14 1 75 1q-65 -17 -97 -59t-32 -111v-524q0 -96 -37 -140q-24 -29 -82 -58q66 -33 89 -67q30 -45 30 -131v-571q0 -69 32 -111t97 -60q-75 0 -102 5q-98 18 -130 87q-22 47 -22 128v558q0 85 -41 122 q-33 28 -86 40z" />
<glyph unicode="|" horiz-adv-x="1024" d="M473 -341v1706h79v-1706h-79z" />
<glyph unicode="}" horiz-adv-x="608" d="M114 -433q54 14 86 47q43 47 43 124v571q0 95 36 140q24 28 83 58q-65 33 -89 67q-30 45 -30 131v524q0 69 -31.5 111t-97.5 59q76 0 102 -4q99 -19 130 -88q22 -49 22 -128v-510q0 -84 41 -121q34 -29 86 -41q-52 -11 -86 -40q-41 -38 -41 -122v-558q1 -146 -81 -191 q-42 -23 -98 -28q-16 -1 -75 -1z" />
<glyph unicode="~" horiz-adv-x="1365" d="M243 1278q126 188 288 188q57 0 190 -45q110 -37 163 -37q121 0 215 118l23 -15q-39 -66 -107 -118q-88 -68 -173 -68q-45 0 -136 30q-172 58 -245 58q-75 0 -130 -55q-23 -22 -64 -72z" />
<glyph unicode="&#xa1;" horiz-adv-x="479" d="M134 879q0 44 31 74q31 31 75 31q42 0 73 -31q31 -30 31 -74t-31 -74q-30 -31 -74 -31t-74 31q-31 30 -31 74zM170 -364l26 939h86l27 -939h-139z" />
<glyph unicode="&#xa2;" d="M180 683q0 181 74 311q96 167 277 187v152h63v-152q94 -10 164 -82l52 101h34v-317h-40q-45 222 -210 246v-882q73 11 129 79q52 68 67 189h75q-14 -166 -116 -260q-67 -60 -155 -71v-154h-63v152q-112 12 -192 83q-78 68 -120 181q-39 106 -39 237zM317 689 q0 -278 90 -378q46 -52 124 -66v883q-214 -41 -214 -439z" />
<glyph unicode="&#xa3;" d="M132 0q44 52 65 117q24 72 36 177l44 370h-145v74h155l22 184q25 209 104 322q99 144 272 144q199 0 229 -226h-76q-8 55 -25 89q-36 74 -128 74q-128 0 -189 -134q-30 -65 -48 -212l-30 -241h252v-74h-262l-34 -275q-27 -202 -134 -340q98 63 198 63q41 0 128 -21 q68 -16 117 -16q141 0 170 195h73q-22 -136 -79 -202q-49 -55 -132 -64q-28 -4 -102 -4h-481z" />
<glyph unicode="&#xa4;" horiz-adv-x="1365" d="M134 1204l62 62l188 -188q141 111 299 111q160 0 296 -110l189 186l62 -62l-188 -186q108 -139 108 -295t-107 -293l189 -188l-62 -62l-189 188q-136 -108 -295 -108q-151 0 -298 108l-187 -188l-61 62l184 188q-108 136 -108 295q0 153 108 292zM316 724 q0 -153 108 -261q107 -108 259 -108t260 109q107 107 107 258q0 157 -107 262q-110 109 -264 109q-148 0 -256 -109q-107 -108 -107 -260z" />
<glyph unicode="&#xa5;" d="M49 1331v40q141 -14 211 -14q72 0 211 14v-40q-40 -5 -68 -10q-57 -12 -57 -46q0 -16 14 -52l213 -536l220 545q13 33 13 48q0 30 -46 41q-25 6 -76 10v40q113 -12 165 -12t165 12v-40q-50 -7 -80 -18q-53 -20 -80 -86l-132 -327h223v-74h-252l-62 -154h314v-74h-343 v-431q0 -64 10 -81q29 -43 157 -52v-40q-155 16 -236 16t-235 -16v40q79 7 118 23q43 19 47 58q2 13 2 52v431h-347v74h324l-61 154h-263v74h232l-133 329q-27 66 -82 86q-31 11 -86 16z" />
<glyph unicode="&#xa6;" horiz-adv-x="1024" d="M473 314h79v-655h-79v655zM473 693v672h79v-672h-79z" />
<glyph unicode="&#xa7;" d="M162 592q0 131 100 189q53 31 147 50q-83 52 -127 90q-85 72 -85 182q0 124 94 205q92 80 234 80q192 0 288 -134q51 -71 57 -175h-70q-8 86 -49 139q-69 89 -208 89q-100 0 -165 -47q-69 -49 -69 -132t77 -144q34 -27 93 -61l246 -142q89 -52 128 -105q42 -59 42 -141 q0 -116 -84 -189q-47 -41 -130 -74q74 -48 115 -90q71 -72 71 -174q0 -140 -111 -228q-97 -76 -243 -76q-200 0 -295 144q-43 66 -52 162h68q34 -227 270 -227q98 0 162 47q83 60 83 160q0 69 -49 123q-32 36 -106 80l-279 165q-83 49 -118 105q-35 55 -35 129zM266 612 q0 -60 39 -104q23 -26 79 -59l235 -142q174 72 174 204q0 62 -40 107q-27 30 -93 68l-173 101q-90 -16 -139 -42q-82 -44 -82 -133z" />
<glyph unicode="&#xa8;" horiz-adv-x="1024" d="M237 1262q0 42 29 70t70 28q39 0 67 -28q29 -29 29 -69q0 -41 -29 -69q-28 -29 -68 -29q-41 0 -69 29q-29 28 -29 68zM592 1262q0 42 29 70t70 28q39 0 67 -28q29 -29 29 -69q0 -41 -29 -69q-28 -29 -69 -29q-40 0 -68 29q-29 28 -29 68z" />
<glyph unicode="&#xa9;" horiz-adv-x="1593" d="M91 681q0 200 104 371q101 167 281 259q150 77 329 77q190 0 360 -104t260 -281q77 -151 77 -320q0 -141 -53.5 -270.5t-153.5 -228.5q-99 -100 -228.5 -153.5t-270.5 -53.5q-140 0 -269.5 53.5t-228.5 153.5q-99 99 -153 228.5t-54 268.5zM159 683q0 -265 187 -452 q90 -90 207 -138.5t244 -48.5t244 48.5t207 138.5t138.5 207t48.5 243q0 129 -49 248t-138 205q-192 187 -459 187q-121 0 -237.5 -49t-205.5 -138q-90 -89 -138.5 -206.5t-48.5 -244.5zM469 685q0 192 99 313q87 108 238 108q114 0 189 -63l43 60h32v-236h-37 q-20 74 -52 117q-56 75 -164 75q-125 0 -183 -103q-60 -105 -60 -273q0 -156 53 -257q60 -113 185 -113q58 0 105 28.5t71 77.5q26 52 30 133h61q-5 -97 -38 -160q-32 -63 -94.5 -98t-141.5 -35q-74 0 -139.5 31.5t-106.5 86.5q-90 121 -90 308z" />
<glyph unicode="&#xaa;" horiz-adv-x="705" d="M74 579v71h566v-71h-566zM113 928q0 117 149 179q82 34 181 47v64q0 65 -19 90q-26 35 -84 35q-61 0 -93 -33q-14 -15 -14 -42q0 -41 -7 -53q-12 -25 -45 -25q-43 0 -43 43q0 59 56 104q63 51 150 51q108 0 162 -71q30 -40 30 -118v-272q0 -64 10 -93q9 -23 34 -23 q13 0 39 6v-46q-40 -8 -69 -8q-43 0 -65 25q-18 20 -27 66q-54 -94 -164 -94q-79 0 -130 47q-51 48 -51 121zM208 929q0 -52 31 -80q27 -26 74 -26q85 0 115 74q15 37 15 114v97q-235 -39 -235 -179z" />
<glyph unicode="&#xab;" horiz-adv-x="775" d="M121 489l228 478h58l-176 -478l176 -489h-58zM368 489l228 478h58l-176 -478l176 -489h-58z" />
<glyph unicode="&#xac;" horiz-adv-x="1024" d="M77 481v65h870v-546h-147v481h-723z" />
<glyph unicode="&#xad;" horiz-adv-x="518" d="M0 516v86h518v-86h-518z" />
<glyph unicode="&#xae;" horiz-adv-x="1593" d="M91 681q0 200 104 371q101 167 281 259q150 77 329 77q190 0 360 -104t260 -281q77 -151 77 -320q0 -141 -53.5 -270.5t-153.5 -228.5q-99 -100 -228.5 -153.5t-270.5 -53.5q-140 0 -269.5 53.5t-228.5 153.5q-99 99 -153 228.5t-54 268.5zM159 683q0 -265 187 -452 q90 -90 207 -138.5t244 -48.5t244 48.5t207 138.5t138.5 207t48.5 243q0 129 -49 248t-138 205q-192 187 -459 187q-121 0 -237.5 -49t-205.5 -138q-90 -89 -138.5 -206.5t-48.5 -244.5zM467 269v38q55 3 77 12q23 10 26 31q1 7 1 29v604q0 48 -27 60q-21 9 -77 13v36h334 q109 0 170 -39q45 -29 71 -76.5t26 -99.5q0 -97 -76 -158q-34 -28 -110 -48q38 -23 54 -47q14 -20 26 -47l94 -209q21 -45 42 -53q17 -7 62 -8v-38q-49 4 -82 4q-31 0 -79 -3l-137 302q-20 43 -36 61q-29 31 -109 31h-48v-285q0 -34 6 -44q17 -24 98 -28v-38 q-105 10 -153 10t-153 -10zM669 711h114q186 0 186 172q0 162 -180 162h-120v-334z" />
<glyph unicode="&#xaf;" horiz-adv-x="1024" d="M215 1221v95h595v-95h-595z" />
<glyph unicode="&#xb0;" horiz-adv-x="1024" d="M227 1110q0 117 83 196q86 82 205 82q115 0 199 -81q83 -81 83 -197q0 -115 -83 -196q-84 -82 -202 -82t-202 82q-83 82 -83 196zM313 1110q0 -81 58 -138q59 -58 141 -58q83 0 141 58q58 57 58 138q0 83 -58 138q-60 58 -144 58q-79 0 -138 -58q-58 -57 -58 -138z" />
<glyph unicode="&#xb1;" d="M116 70v106h826v-106h-826zM116 640v102h360v355h106v-355h360v-102h-360v-354h-106v354h-360z" />
<glyph unicode="&#xb2;" horiz-adv-x="690" d="M93 535v57q130 151 224 277q82 108 118 170q37 64 37 115q0 53 -35 89q-37 37 -99 37q-97 0 -144 -76q-22 -35 -32 -105h-49q10 114 48 164q63 84 192 84q88 0 148 -44q73 -55 73 -141q0 -83 -85 -194q-85 -112 -292 -354h380l-10 -79h-474z" />
<glyph unicode="&#xb3;" horiz-adv-x="690" d="M86 772h52q4 -65 18 -99q35 -88 153 -88q87 0 136 55q43 47 43 123q0 123 -92 160q-39 16 -129 18v53q15 -1 22 -1q52 0 93 23q75 42 75 135q0 65 -36 100q-36 36 -100 36q-140 0 -170 -158h-45q22 218 232 218q106 0 166 -62q51 -54 51 -131q0 -88 -65 -139 q-25 -20 -73 -41q53 -18 85 -38q88 -56 88 -170q0 -103 -74 -172q-73 -69 -189 -69q-168 0 -219 124q-19 46 -22 123z" />
<glyph unicode="&#xb4;" horiz-adv-x="1024" d="M452 1130l231 308h163l-302 -308h-92z" />
<glyph unicode="&#xb5;" horiz-adv-x="885" d="M-3 -300q0 40 13 123q12 69 41 371q14 176 14 401v342h104v-586q0 -136 22 -185q49 -111 178 -111q104 0 190 71q39 32 91 109v702h104v-708q0 -84 14 -114q16 -38 65 -38q27 0 64 27v-30l-136 -93q-3 -2 -7 -2q-18 0 -40.5 15.5t-32.5 35.5q-18 35 -26 130 q-98 -94 -146 -127q-94 -63 -192 -63q-171 0 -223 185v-80q0 -83 17 -266q5 -60 5 -96q0 -42 -17 -69.5t-42 -27.5q-30 0 -49 38q-11 22 -11 46z" />
<glyph unicode="&#xb6;" d="M123 1040q0 199 147 277q89 48 292 48h425v-40q-84 -7 -117 -21q-42 -20 -48 -60q-2 -14 -2 -52v-1321q0 -59 11 -80q19 -34 85 -45q25 -4 71 -8v-40q-171 15 -353 15t-354 -15v40q84 7 118 22q42 19 48 59q2 14 2 52v819q-325 45 -325 350zM534 -98q0 -81 13 -103 q20 -33 92 -33q67 0 84 33q11 21 11 103v1270q0 82 -11 103q-17 33 -85 33q-71 0 -91 -33q-13 -22 -13 -103v-1270z" />
<glyph unicode="&#xb7;" horiz-adv-x="445" d="M123 500q0 42 29 71q30 29 72 29q40 0 69 -29t29 -70q0 -42 -29 -71t-70 -29q-42 0 -71 29t-29 70z" />
<glyph unicode="&#xb8;" horiz-adv-x="1024" d="M356 -324q67 -18 104 -18q43 0 69 16q41 25 41 75q0 53 -58 75q-32 12 -100 16l84 160h85l-62 -126q172 -20 172 -138q0 -71 -58 -114q-51 -36 -130 -36q-71 0 -147 32v58z" />
<glyph unicode="&#xb9;" horiz-adv-x="690" d="M161 1201v37q83 7 131.5 41t64.5 97h43v-736q0 -33 6 -44q18 -23 97 -28v-37q-76 7 -151 7t-152 -7v37q57 4 77 13q23 10 26 30q1 7 1 29v561h-143z" />
<glyph unicode="&#xba;" horiz-adv-x="705" d="M69 579v71h566v-71h-566zM110 1072q0 143 70 230q68 86 181 86q107 0 170 -89q64 -91 64 -224q0 -135 -65 -225t-178 -90q-114 0 -180 93q-62 88 -62 219zM208 1072q0 -267 143 -267q84 0 120 92q26 70 26 174q0 272 -144 272q-78 0 -115 -85q-30 -72 -30 -186z" />
<glyph unicode="&#xbb;" horiz-adv-x="775" d="M121 0l177 489l-177 478h58l228 -478l-228 -489h-58zM368 0l177 489l-177 478h58l228 -478l-228 -489h-58z" />
<glyph unicode="&#xbc;" horiz-adv-x="1467" d="M161 1201v37q83 7 131.5 41t64.5 97h43v-736q0 -33 6 -44q18 -23 97 -28v-37q-76 7 -151 7t-152 -7v37q57 4 77 13q23 10 26 30q1 7 1 29v561h-143zM301 0l787 1337h78l-788 -1337h-77zM825 217l366 605h86v-526h141v-79h-141v-239h-98v239h-354zM932 296h248v420z" />
<glyph unicode="&#xbd;" horiz-adv-x="1467" d="M161 1201v37q79 6 133 42q49 36 62 96h43v-736q0 -34 6 -44q18 -23 98 -28v-37q-77 7 -152 7q-74 0 -151 -7v37q57 4 77 13q23 10 26 30q1 7 1 29v561h-143zM300 0l788 1337h78l-788 -1337h-78zM869 0v57q138 162 224 278q84 111 118 170q37 64 37 115q0 53 -35 89 q-36 37 -99 37q-97 0 -144 -75q-22 -36 -32 -106h-48q9 115 47 164q63 84 192 84q88 0 148 -44q73 -55 73 -140t-84 -196q-87 -114 -293 -354h380l-10 -79h-474z" />
<glyph unicode="&#xbe;" horiz-adv-x="1467" d="M86 772h52q4 -65 18 -99q35 -88 153 -88q87 0 136 55q43 47 43 123q0 123 -92 160q-39 16 -129 18v53q15 -1 22 -1q52 0 93 23q75 42 75 135q0 65 -36 100q-36 36 -100 36q-140 0 -170 -158h-45q22 218 232 218q106 0 166 -62q51 -54 51 -131q0 -88 -65 -139 q-25 -20 -73 -41q53 -18 85 -38q88 -56 88 -170q0 -103 -74 -172q-73 -69 -189 -69q-168 0 -219 124q-19 46 -22 123zM301 0l787 1337h78l-787 -1337h-78zM825 217l366 605h86v-526h141v-79h-141v-239h-98v239h-354zM932 296h248v420z" />
<glyph unicode="&#xbf;" horiz-adv-x="748" d="M44 -94q0 91 47 165q31 50 79 92q17 15 68 57q97 81 131 154q30 64 30 147q0 35 -8 78h86q12 -72 12 -119q0 -106 -45 -186q-28 -52 -76 -97l-63 -60q-125 -119 -125 -228q0 -101 75 -153q46 -32 114 -32q122 0 194 84q52 60 62 162h46q0 -150 -74 -234 q-45 -53 -115.5 -82.5t-149.5 -29.5q-98 0 -167 46q-56 37 -88.5 100t-32.5 136zM312 879q0 45 31 75q31 31 76 31q42 0 73 -31t31 -75q0 -43 -31 -74t-75 -31t-74 31q-31 31 -31 74z" />
<glyph unicode="&#xc0;" horiz-adv-x="1288" d="M20 -6v40q84 6 117 23q34 20 63 98l471 1250l412 -1258q27 -81 78 -96q33 -11 106 -17v-40q-132 16 -227 16t-227 -16v40q125 12 125 63q0 27 -12 67l-76 241h-488l-73 -210q-25 -73 -25 -98q0 -42 57 -55q25 -5 74 -8v-40q-110 11 -188 11t-187 -11zM318 1770h180 l288 -285h-103zM383 462h449l-207 661z" />
<glyph unicode="&#xc1;" horiz-adv-x="1288" d="M20 -6v40q84 6 117 23q34 20 63 98l471 1250l412 -1258q27 -81 78 -96q33 -11 106 -17v-40q-132 16 -227 16t-227 -16v40q125 12 125 63q0 27 -12 67l-76 241h-488l-73 -210q-25 -73 -25 -98q0 -42 57 -55q25 -5 74 -8v-40q-110 11 -188 11t-187 -11zM383 462h449 l-207 661zM560 1485l288 285h179l-364 -285h-103z" />
<glyph unicode="&#xc2;" horiz-adv-x="1288" d="M20 -6v40q84 6 117 23q34 20 63 98l471 1250l412 -1258q27 -81 78 -96q33 -11 106 -17v-40q-132 16 -227 16t-227 -16v40q125 12 125 63q0 27 -12 67l-76 241h-488l-73 -210q-25 -73 -25 -98q0 -42 57 -55q25 -5 74 -8v-40q-110 11 -188 11t-187 -11zM327 1496l261 262 h152l260 -262h-103l-233 188l-233 -188h-104zM383 462h449l-207 661z" />
<glyph unicode="&#xc3;" horiz-adv-x="1288" d="M20 -6v40q84 6 117 23q34 20 63 98l471 1250l412 -1258q27 -81 78 -96q33 -11 106 -17v-40q-132 16 -227 16t-227 -16v40q125 12 125 63q0 27 -12 67l-76 241h-488l-73 -210q-25 -73 -25 -98q0 -42 57 -55q25 -5 74 -8v-40q-110 11 -188 11t-187 -11zM344 1546 q37 194 194 194q53 0 95 -25q25 -14 93 -67q46 -36 95 -36q102 0 120 109l56 -11q-13 -107 -69 -155q-53 -46 -123 -46q-43 0 -81 17q-29 13 -92 64q-58 47 -108 47q-95 0 -122 -106zM383 462h449l-207 661z" />
<glyph unicode="&#xc4;" horiz-adv-x="1288" d="M20 -6v40q84 6 117 23q34 20 63 98l471 1250l412 -1258q27 -81 78 -96q33 -11 106 -17v-40q-132 16 -227 16t-227 -16v40q125 12 125 63q0 27 -12 67l-76 241h-488l-73 -210q-25 -73 -25 -98q0 -42 57 -55q25 -5 74 -8v-40q-110 11 -188 11t-187 -11zM379 1627 q0 44 31 74q31 31 75 31q42 0 72 -31q31 -30 31 -73q0 -44 -31 -74q-30 -31 -73 -31q-44 0 -74 31q-31 30 -31 73zM383 462h449l-207 661zM739 1627q0 44 31 74q31 31 75 31q42 0 72 -31q31 -30 31 -73q0 -44 -31 -74q-30 -31 -74 -31q-43 0 -73 31q-31 30 -31 73z" />
<glyph unicode="&#xc5;" horiz-adv-x="1288" d="M20 -6v40q84 6 117 23q34 20 63 98l471 1250l412 -1258q27 -81 78 -96q33 -11 106 -17v-40q-132 16 -227 16t-227 -16v40q125 12 125 63q0 27 -12 67l-76 241h-488l-73 -210q-25 -73 -25 -98q0 -42 57 -55q25 -5 74 -8v-40q-110 11 -188 11t-187 -11zM383 462h449 l-207 661zM497 1627q0 71 49 118q50 49 120 49q67 0 116 -49q49 -48 49 -118q0 -69 -49 -117q-49 -49 -118 -49t-118 49t-49 117zM562 1627q0 -42 30 -71q30 -30 72 -30t72 30q30 29 30 71q0 43 -30 72q-30 30 -73 30q-41 0 -71 -30q-30 -29 -30 -72z" />
<glyph unicode="&#xc6;" horiz-adv-x="1803" d="M20 -6v40q88 6 130 29q46 26 94 109l688 1193h729l28 -287h-40q-27 103 -59 153q-29 46 -70 63q-34 14 -100 14h-315v-569h318q57 0 78 18q38 35 42 150h41v-396h-41q-1 70 -19 113q-24 57 -100 58h-319v-499q0 -58 10 -76q23 -49 134 -50h161q87 0 127 17q84 29 133 237 h40l-40 -311h-869v40q83 7 117 22q42 19 47 59q3 14 3 52v301h-477l-188 -335q-20 -36 -20 -53q0 -36 56 -45q33 -5 90 -7v-40q-151 11 -205 11t-204 -11zM524 531h444v776z" />
<glyph unicode="&#xc7;" horiz-adv-x="1197" d="M104 687q0 319 157 522q72 94 188 143q87 36 188 36q182 0 307 -113l74 108h34v-377h-40q-83 325 -358 325q-207 0 -304 -179q-98 -181 -98 -468q0 -267 87 -441q47 -94 127.5 -145.5t181.5 -51.5q132 0 225 89q105 102 117 315h76q-7 -238 -140 -363 q-108 -101 -267 -109l-50 -102q180 -16 180 -147q0 -73 -59 -119q-53 -42 -126 -42q-79 0 -162 31v66q63 -18 103 -18q46 0 76 18q44 26 44 78q0 57 -59 79q-32 11 -108 14l74 145q-150 19 -263 122q-102 94 -158 267q-47 147 -47 317z" />
<glyph unicode="&#xc8;" horiz-adv-x="1082" d="M70 0v40q84 7 117 22q42 19 47 59q3 14 3 52v1019q0 59 -11 80q-18 34 -86 45q-26 5 -70 8v40h859l28 -287h-40q-27 102 -59 153q-29 46 -70 63q-34 14 -100 14h-314v-569h318q56 0 77 18q38 36 42 150h41v-396h-41q-2 70 -19 113q-24 57 -100 58h-318v-499q0 -58 9 -75 q24 -50 135 -51h160q87 0 127 17q84 30 133 237h40l-40 -311h-868zM213 1770h180l288 -285h-103z" />
<glyph unicode="&#xc9;" horiz-adv-x="1082" d="M70 0v40q84 7 117 22q42 19 47 59q3 14 3 52v1019q0 59 -11 80q-18 34 -86 45q-26 5 -70 8v40h859l28 -287h-40q-27 102 -59 153q-29 46 -70 63q-34 14 -100 14h-314v-569h318q56 0 77 18q38 36 42 150h41v-396h-41q-2 70 -19 113q-24 57 -100 58h-318v-499q0 -58 9 -75 q24 -50 135 -51h160q87 0 127 17q84 30 133 237h40l-40 -311h-868zM433 1485l289 285h179l-364 -285h-104z" />
<glyph unicode="&#xca;" horiz-adv-x="1082" d="M70 0v40q84 7 117 22q42 19 47 59q3 14 3 52v1019q0 59 -11 80q-18 34 -86 45q-26 5 -70 8v40h859l28 -287h-40q-27 102 -59 153q-29 46 -70 63q-34 14 -100 14h-314v-569h318q56 0 77 18q38 36 42 150h41v-396h-41q-2 70 -19 113q-24 57 -100 58h-318v-499q0 -58 9 -75 q24 -50 135 -51h160q87 0 127 17q84 30 133 237h40l-40 -311h-868zM222 1496l260 262h152l261 -262h-104l-233 188l-233 -188h-103z" />
<glyph unicode="&#xcb;" horiz-adv-x="1082" d="M70 0v40q84 7 117 22q42 19 47 59q3 14 3 52v1019q0 59 -11 80q-18 34 -86 45q-26 5 -70 8v40h859l28 -287h-40q-27 102 -59 153q-29 46 -70 63q-34 14 -100 14h-314v-569h318q56 0 77 18q38 36 42 150h41v-396h-41q-2 70 -19 113q-24 57 -100 58h-318v-499q0 -58 9 -75 q24 -50 135 -51h160q87 0 127 17q84 30 133 237h40l-40 -311h-868zM274 1627q0 44 31 74q31 31 75 31q42 0 72 -31q31 -30 31 -73q0 -44 -31 -74q-30 -31 -73 -31q-44 0 -74 31q-31 30 -31 73zM634 1627q0 44 31 74q31 31 75 31q42 0 72 -31q31 -30 31 -73q0 -44 -31 -74 q-30 -31 -73 -31q-44 0 -74 31q-31 30 -31 73z" />
<glyph unicode="&#xcc;" horiz-adv-x="611" d="M-4 1770h173l247 -285h-103zM70 -6v40q83 7 117 22q42 19 47 59q3 15 3 52v1031q0 59 -11 80q-29 44 -156 53v40q153 -16 235 -16t236 16v-40q-82 -6 -118 -22q-41 -19 -46 -59q-3 -14 -3 -52v-1031q0 -59 11 -80q14 -24 47.5 -35t108.5 -18v-40q-154 16 -236 16 t-235 -16z" />
<glyph unicode="&#xcd;" horiz-adv-x="611" d="M70 -6v40q83 7 117 22q42 19 47 59q3 15 3 52v1031q0 59 -11 80q-29 44 -156 53v40q153 -16 235 -16t236 16v-40q-82 -6 -118 -22q-41 -19 -46 -59q-3 -14 -3 -52v-1031q0 -59 11 -80q14 -24 47.5 -35t108.5 -18v-40q-154 16 -236 16t-235 -16zM195 1485l247 285h173 l-317 -285h-103z" />
<glyph unicode="&#xce;" horiz-adv-x="611" d="M-7 1496l237 262h152l236 -262h-100l-212 188l-213 -188h-100zM70 -6v40q83 7 117 22q42 19 47 59q3 15 3 52v1031q0 59 -11 80q-29 44 -156 53v40q153 -16 235 -16t236 16v-40q-82 -6 -118 -22q-41 -19 -46 -59q-3 -14 -3 -52v-1031q0 -59 11 -80q14 -24 47.5 -35 t108.5 -18v-40q-154 16 -236 16t-235 -16z" />
<glyph unicode="&#xcf;" horiz-adv-x="611" d="M44 1627q0 44 31 74q31 31 75 31q42 0 72 -31q31 -30 31 -73q0 -44 -31 -74q-30 -31 -73 -31q-44 0 -74 31q-31 30 -31 73zM71 -6v40q84 7 117 22q42 19 47 59q3 15 3 52v1031q0 59 -11 80q-29 44 -156 53v40q153 -16 235 -16t236 16v-40q-82 -6 -118 -22 q-41 -19 -47 -59q-2 -14 -2 -52v-1031q0 -59 11 -80q14 -24 47.5 -35t108.5 -18v-40q-154 16 -236 16t-235 -16zM358 1627q0 45 31 74q31 31 75 31q42 0 72 -31q31 -30 31 -73q0 -44 -31 -74q-30 -31 -74 -31q-43 0 -73 31q-31 30 -31 73z" />
<glyph unicode="&#xd0;" horiz-adv-x="1284" d="M59 0v40q84 7 117 22q42 19 47 59q3 14 3 52v507h-167v68h167v444q0 59 -11 80q-18 34 -86 45q-26 5 -70 8v40h471q187 0 291 -45q174 -74 274 -274q85 -168 85 -366q0 -228 -110 -411q-113 -188 -309 -244q-87 -25 -207 -25h-495zM363 164q0 -55 8 -72q16 -31 70 -37 q23 -3 71 -3q520 0 520 626q0 332 -147 501q-112 129 -343 129h-179v-560h341v-68h-341v-516z" />
<glyph unicode="&#xd1;" horiz-adv-x="1362" d="M67 1331v40q84 -7 158 -7q68 0 137 7l703 -1094v921q0 64 -10 81q-28 44 -157 52v40q152 -11 205 -11q58 0 194 11v-40q-77 -6 -117 -22q-44 -20 -48 -59q-2 -13 -2 -52v-1242h-23l-805 1264v-1053q0 -63 10 -81q29 -43 157 -52v-40q-154 11 -205 11q-56 0 -194 -11v40 q79 6 117 23q44 19 48 58q2 13 2 52v1110q-29 33 -73 43q-36 7 -97 11zM373 1546q39 194 194 194q52 0 95 -25q25 -14 92 -67q47 -36 96 -36q102 0 120 109l56 -11q-14 -108 -69 -155q-53 -46 -123 -46q-43 0 -81 17q-29 13 -92 64q-58 47 -108 47q-95 0 -122 -106z" />
<glyph unicode="&#xd2;" horiz-adv-x="1266" d="M104 686q0 281 116 469q142 233 421 233q178 0 312 -120q118 -105 172 -295q38 -132 38 -289q0 -284 -121 -482q-138 -225 -402 -225q-183 0 -317 113q-123 104 -180 304q-39 134 -39 292zM252 686q0 -254 79 -432q47 -105 128.5 -163.5t180.5 -58.5q147 0 242 121 q75 96 109 270q24 118 24 260q0 255 -75 426q-99 225 -313 225q-141 0 -241 -125q-134 -166 -134 -523zM288 1770h180l288 -285h-103z" />
<glyph unicode="&#xd3;" horiz-adv-x="1266" d="M104 686q0 281 116 469q142 233 421 233q178 0 312 -120q118 -105 172 -295q38 -132 38 -289q0 -284 -121 -482q-138 -225 -402 -225q-183 0 -317 113q-123 104 -180 304q-39 134 -39 292zM252 686q0 -254 79 -432q47 -105 128.5 -163.5t180.5 -58.5q147 0 242 121 q75 96 109 270q24 118 24 260q0 255 -75 426q-99 225 -313 225q-141 0 -241 -125q-134 -166 -134 -523zM508 1485l288 285h180l-365 -285h-103z" />
<glyph unicode="&#xd4;" horiz-adv-x="1266" d="M104 686q0 281 116 469q142 233 421 233q178 0 312 -120q118 -105 172 -295q38 -132 38 -289q0 -284 -121 -482q-138 -225 -402 -225q-183 0 -317 113q-123 104 -180 304q-39 134 -39 292zM252 686q0 -254 79 -432q47 -105 128.5 -163.5t180.5 -58.5q147 0 242 121 q75 96 109 270q24 118 24 260q0 255 -75 426q-99 225 -313 225q-141 0 -241 -125q-134 -166 -134 -523zM297 1496l260 262h152l261 -262h-104l-233 188l-233 -188h-103z" />
<glyph unicode="&#xd5;" horiz-adv-x="1266" d="M104 686q0 281 116 469q142 233 421 233q178 0 312 -120q118 -105 172 -295q38 -132 38 -289q0 -284 -121 -482q-138 -225 -402 -225q-183 0 -317 113q-123 104 -180 304q-39 134 -39 292zM252 686q0 -254 79 -432q47 -105 128.5 -163.5t180.5 -58.5q147 0 242 121 q75 96 109 270q24 118 24 260q0 255 -75 426q-99 225 -313 225q-141 0 -241 -125q-134 -166 -134 -523zM327 1546q39 194 194 194q53 0 95 -25q25 -14 93 -67q46 -36 95 -36q102 0 120 109l57 -11q-14 -107 -70 -155q-53 -46 -123 -46q-43 0 -81 17q-28 13 -92 64 q-58 47 -108 47q-94 0 -122 -106z" />
<glyph unicode="&#xd6;" horiz-adv-x="1266" d="M104 686q0 281 116 469q142 233 421 233q178 0 312 -120q118 -105 172 -295q38 -132 38 -289q0 -284 -121 -482q-138 -225 -402 -225q-183 0 -317 113q-123 104 -180 304q-39 134 -39 292zM252 686q0 -254 79 -432q47 -105 128.5 -163.5t180.5 -58.5q147 0 242 121 q75 96 109 270q24 118 24 260q0 255 -75 426q-99 225 -313 225q-141 0 -241 -125q-134 -166 -134 -523zM349 1627q0 44 31 74q31 31 75 31q42 0 72 -31q31 -30 31 -73q0 -44 -31 -74q-30 -31 -73 -31q-44 0 -74 31q-31 30 -31 73zM709 1627q0 44 31 74q31 31 75 31 q42 0 72 -31q31 -30 31 -73q0 -44 -31 -74q-30 -31 -73 -31q-44 0 -74 31q-31 30 -31 73z" />
<glyph unicode="&#xd7;" d="M159 986l75 75l297 -297l295 295l70 -70l-295 -295l297 -298l-74 -74l-298 297l-295 -295l-70 70l295 295z" />
<glyph unicode="&#xd8;" horiz-adv-x="1267" d="M47 0l166 213q-109 193 -109 451q0 302 133 505q68 106 176 164q102 55 226 55q235 0 377 -178l126 155h86l-172 -211q107 -194 107 -446q0 -311 -139 -520q-139 -211 -391 -211q-187 0 -324 121q-22 20 -51 49l-119 -147h-92zM243 648q0 -196 52 -341l651 825 q-106 201 -299 201q-147 0 -249 -115q-82 -94 -123 -271q-32 -137 -32 -299zM327 231q24 -51 57 -88q100 -111 247 -111q141 0 236 112q81 94 122 266q34 141 34 310q0 207 -47 335z" />
<glyph unicode="&#xd9;" horiz-adv-x="1340" d="M59 1331v40q153 -16 235 -16t236 16v-40q-82 -6 -118 -22q-41 -19 -46 -59q-3 -14 -3 -52v-799q0 -132 25 -184q41 -87 138 -128q73 -31 171 -31q103 0 183 34.5t121 97.5q49 73 49 207v803q0 59 -11 80q-29 44 -156 53v40q152 -11 205 -11q57 0 194 11v-40 q-82 -6 -117 -22q-42 -19 -48 -59q-2 -14 -2 -52v-782q0 -97 -14 -157.5t-49 -111.5q-117 -170 -383 -170q-223 0 -348 132q-68 73 -85 163q-10 53 -10 130v796q0 59 -11 80q-29 44 -156 53zM356 1770h180l288 -285h-103z" />
<glyph unicode="&#xda;" horiz-adv-x="1340" d="M59 1331v40q153 -16 235 -16t236 16v-40q-82 -6 -118 -22q-41 -19 -46 -59q-3 -14 -3 -52v-799q0 -132 25 -184q41 -87 138 -128q73 -31 171 -31q103 0 183 34.5t121 97.5q49 73 49 207v803q0 59 -11 80q-29 44 -156 53v40q152 -11 205 -11q57 0 194 11v-40 q-82 -6 -117 -22q-42 -19 -48 -59q-2 -14 -2 -52v-782q0 -97 -14 -157.5t-49 -111.5q-117 -170 -383 -170q-223 0 -348 132q-68 73 -85 163q-10 53 -10 130v796q0 59 -11 80q-29 44 -156 53zM577 1485l288 285h179l-364 -285h-103z" />
<glyph unicode="&#xdb;" horiz-adv-x="1340" d="M59 1331v40q153 -16 235 -16t236 16v-40q-82 -6 -118 -22q-41 -19 -46 -59q-3 -14 -3 -52v-799q0 -132 25 -184q41 -87 138 -128q73 -31 171 -31q103 0 183 34.5t121 97.5q49 73 49 207v803q0 59 -11 80q-29 44 -156 53v40q152 -11 205 -11q57 0 194 11v-40 q-82 -6 -117 -22q-42 -19 -48 -59q-2 -14 -2 -52v-782q0 -97 -14 -157.5t-49 -111.5q-117 -170 -383 -170q-223 0 -348 132q-68 73 -85 163q-10 53 -10 130v796q0 59 -11 80q-29 44 -156 53zM361 1496l261 262h152l260 -262h-103l-233 188l-233 -188h-104z" />
<glyph unicode="&#xdc;" horiz-adv-x="1340" d="M59 1331v40q153 -16 235 -16t236 16v-40q-82 -6 -118 -22q-41 -19 -46 -59q-3 -14 -3 -52v-799q0 -132 25 -184q41 -87 138 -128q73 -31 171 -31q103 0 183 34.5t121 97.5q49 73 49 207v803q0 59 -11 80q-29 44 -156 53v40q152 -11 205 -11q57 0 194 11v-40 q-82 -6 -117 -22q-42 -19 -48 -59q-2 -14 -2 -52v-782q0 -97 -14 -157.5t-49 -111.5q-117 -170 -383 -170q-223 0 -348 132q-68 73 -85 163q-10 53 -10 130v796q0 59 -11 80q-29 44 -156 53zM413 1627q0 45 31 74q31 31 75 31q42 0 72 -31q31 -30 31 -73q0 -44 -31 -74 q-30 -31 -73 -31q-44 0 -74 31q-31 30 -31 73zM773 1627q0 45 31 74q31 31 75 31q42 0 72 -31q31 -30 31 -73q0 -44 -31 -74q-30 -31 -73 -31q-44 0 -74 31q-31 30 -31 73z" />
<glyph unicode="&#xdd;" horiz-adv-x="1185" d="M26 1331v40q138 -14 234 -14t234 14v-40q-50 -3 -89 -10q-58 -10 -58 -45q0 -16 19 -53l276 -548l277 557q14 28 14 45q0 35 -58 45q-35 6 -86 9v40q110 -12 188 -12q77 0 187 12v-40q-71 -9 -103 -20q-48 -18 -81 -84l-314 -629v-431q0 -64 10 -81q29 -43 157 -52v-40 q-155 16 -236 16q-82 0 -235 -16v40q79 7 118 23q43 19 47 58q2 13 2 52v431l-317 631q-35 68 -80 85q-33 11 -106 17zM511 1485l288 285h180l-365 -285h-103z" />
<glyph unicode="&#xde;" horiz-adv-x="1082" d="M70 -6v40q83 7 117 22q42 19 47 59q3 15 3 52v1031q0 59 -11 80q-29 44 -156 53v40q153 -16 235 -16t236 16v-40q-82 -6 -118 -22q-41 -19 -46 -59q-3 -14 -3 -52v-37h212q105 0 173.5 -17.5t122.5 -56.5q65 -49 103 -129q39 -81 39 -172q0 -185 -145 -287 q-105 -74 -275 -74h-230v-258q0 -59 11 -80q14 -24 47.5 -35t108.5 -18v-40q-154 16 -236 16t-235 -16zM374 482h192q140 0 212 57q108 85 108 260q0 151 -80 234q-45 47 -110 60q-51 11 -115 11h-207v-622z" />
<glyph unicode="&#xdf;" horiz-adv-x="1034" d="M47 -6v35q58 2 96 13q40 12 47 43q4 14 4 48v852q0 161 68 256q97 135 277 135q145 0 232 -91q82 -87 82 -217q0 -138 -100 -224q-43 -37 -130 -76q323 -79 323 -393q0 -151 -81 -260q-94 -126 -236 -126q-89 0 -182 72v51q66 -40 126 -40q109 0 173 85q63 84 63 209 q0 134 -73 228q-104 135 -326 136v59q128 1 196 43q110 68 110 233q0 107 -40 175q-46 79 -147 79q-55 0 -102.5 -27.5t-71.5 -72.5q-34 -64 -34 -188v-1034q-67 6 -120 6q-59 0 -154 -9z" />
<glyph unicode="&#xe0;" horiz-adv-x="925" d="M86 246q0 182 234 281q132 56 298 77v115q0 109 -33 153q-46 61 -143 61q-77 0 -138 -40q-38 -25 -45 -61q-2 -13 -2 -60q0 -88 -73 -88q-58 0 -58 60q0 89 87 160q98 80 235 80q92 0 167 -41q93 -50 118 -140q13 -46 13 -116v-442q0 -109 17 -156q17 -44 66 -44 q20 0 51 6v-52q-56 -10 -100 -10q-82 0 -115 64q-20 38 -26 107q-42 -75 -78 -109q-73 -68 -195 -68q-123 0 -201 73q-79 75 -79 190zM157 1438h163l231 -308h-91zM217 247q0 -89 53 -139q48 -45 127 -45q145 0 196 127q25 62 25 192v170q-147 -25 -250 -76 q-151 -75 -151 -229z" />
<glyph unicode="&#xe1;" horiz-adv-x="925" d="M86 246q0 182 234 281q132 56 298 77v115q0 109 -33 153q-46 61 -143 61q-77 0 -138 -40q-38 -25 -45 -61q-2 -13 -2 -60q0 -88 -73 -88q-58 0 -58 60q0 89 87 160q98 80 235 80q92 0 167 -41q93 -50 118 -140q13 -46 13 -116v-442q0 -109 17 -156q17 -44 66 -44 q20 0 51 6v-52q-56 -10 -100 -10q-82 0 -115 64q-20 38 -26 107q-42 -75 -78 -109q-73 -68 -195 -68q-123 0 -201 73q-79 75 -79 190zM217 247q0 -89 53 -139q48 -45 127 -45q145 0 196 127q25 62 25 192v170q-147 -25 -250 -76q-151 -75 -151 -229zM341 1130l231 308h163 l-303 -308h-91z" />
<glyph unicode="&#xe2;" horiz-adv-x="925" d="M86 246q0 182 234 281q132 56 298 77v115q0 109 -33 153q-46 61 -143 61q-77 0 -138 -40q-38 -25 -45 -61q-2 -13 -2 -60q0 -88 -73 -88q-58 0 -58 60q0 89 87 160q98 80 235 80q92 0 167 -41q93 -50 118 -140q13 -46 13 -116v-442q0 -109 17 -156q17 -44 66 -44 q20 0 51 6v-52q-56 -10 -100 -10q-82 0 -115 64q-20 38 -26 107q-42 -75 -78 -109q-73 -68 -195 -68q-123 0 -201 73q-79 75 -79 190zM141 1142l243 285h129l244 -285h-98l-210 188l-210 -188h-98zM217 247q0 -89 53 -139q48 -45 127 -45q145 0 196 127q25 62 25 192v170 q-147 -25 -250 -76q-151 -75 -151 -229z" />
<glyph unicode="&#xe3;" horiz-adv-x="925" d="M86 246q0 182 234 281q132 56 298 77v115q0 109 -33 153q-46 61 -143 61q-77 0 -138 -40q-38 -25 -45 -61q-2 -13 -2 -60q0 -88 -73 -88q-58 0 -58 60q0 89 87 160q98 80 235 80q92 0 167 -41q93 -50 118 -140q13 -46 13 -116v-442q0 -109 17 -156q17 -44 66 -44 q20 0 51 6v-52q-56 -10 -100 -10q-82 0 -115 64q-20 38 -26 107q-42 -75 -78 -109q-73 -68 -195 -68q-123 0 -201 73q-79 75 -79 190zM145 1203q23 107 62 147q46 47 118 47q50 0 89 -25q23 -14 86 -67q43 -36 89 -36q94 0 112 109l52 -11q-13 -108 -64 -155 q-50 -46 -115 -46q-40 0 -75 17q-28 14 -86 64q-54 47 -100 47q-89 0 -113 -106zM217 247q0 -89 53 -139q48 -45 127 -45q145 0 196 127q25 62 25 192v170q-147 -25 -250 -76q-151 -75 -151 -229z" />
<glyph unicode="&#xe4;" horiz-adv-x="925" d="M86 246q0 182 234 281q132 56 298 77v115q0 109 -33 153q-46 61 -143 61q-77 0 -138 -40q-38 -25 -45 -61q-2 -13 -2 -60q0 -88 -73 -88q-58 0 -58 60q0 89 87 160q98 80 235 80q92 0 167 -41q93 -50 118 -140q13 -46 13 -116v-442q0 -109 17 -156q17 -44 66 -44 q20 0 51 6v-52q-56 -10 -100 -10q-82 0 -115 64q-20 38 -26 107q-42 -75 -78 -109q-73 -68 -195 -68q-123 0 -201 73q-79 75 -79 190zM174 1262q0 42 29 70t70 28q39 0 67 -28q29 -29 29 -69q0 -41 -29 -69q-29 -29 -68 -29q-41 0 -69 29q-29 28 -29 68zM217 247 q0 -89 53 -139q48 -45 127 -45q145 0 196 127q25 62 25 192v170q-147 -25 -250 -76q-151 -75 -151 -229zM529 1262q0 42 29 70t70 28q39 0 67 -28q29 -29 29 -69q0 -41 -29 -69q-28 -29 -69 -29q-40 0 -68 29q-29 28 -29 68z" />
<glyph unicode="&#xe5;" horiz-adv-x="925" d="M86 246q0 182 234 281q132 56 298 77v115q0 109 -33 153q-46 61 -143 61q-77 0 -138 -40q-38 -25 -45 -61q-2 -13 -2 -60q0 -88 -73 -88q-58 0 -58 60q0 89 87 160q98 80 235 80q92 0 167 -41q93 -50 118 -140q13 -46 13 -116v-442q0 -109 17 -156q17 -44 66 -44 q20 0 51 6v-52q-56 -10 -100 -10q-82 0 -115 64q-20 38 -26 107q-42 -75 -78 -109q-73 -68 -195 -68q-123 0 -201 73q-79 75 -79 190zM217 247q0 -89 53 -139q48 -45 127 -45q145 0 196 127q25 62 25 192v170q-147 -25 -250 -76q-151 -75 -151 -229zM282 1295q0 71 49 118 q50 49 120 49q67 0 116 -49q49 -48 49 -117q0 -70 -49 -118q-49 -49 -118 -49t-118 49t-49 117zM347 1296q0 -42 30 -71q30 -30 72 -30q43 0 72 30q30 29 30 71q0 43 -30 72t-73 29q-41 0 -71 -29q-30 -30 -30 -72z" />
<glyph unicode="&#xe6;" horiz-adv-x="1444" d="M87 241q0 126 109 206q98 71 274 105q55 11 149 23v144q0 109 -33 153q-46 61 -143 61q-77 0 -138 -40q-38 -25 -45 -61q-2 -13 -2 -60q0 -88 -73 -88q-58 0 -58 60q0 89 87 160q98 80 236 80q117 0 206 -66q35 -26 59 -67q106 133 280 133q140 0 236 -92 q113 -109 125 -384h-616q1 -196 38 -289q67 -173 238 -173q154 0 222 134q27 55 38 138h82q-10 -111 -68 -197q-94 -138 -283 -138q-188 0 -292 129q-31 39 -58 96q-85 -225 -291 -225q-122 0 -200 73q-79 74 -79 185zM218 243q0 -86 53 -135q47 -45 127 -45q145 0 196 127 q25 62 25 191v141q-171 -30 -247 -64q-154 -71 -154 -215zM742 581h487q-2 104 -31 188q-55 164 -203 164q-160 0 -223 -200q-23 -73 -30 -152z" />
<glyph unicode="&#xe7;" horiz-adv-x="869" d="M87 476q0 244 120 388q105 126 268 126q85 0 145 -40q22 -14 52 -45l52 103h34v-320h-40q-20 88 -49 139q-30 52 -79.5 82t-106.5 30q-127 0 -191 -135q-60 -127 -60 -328q0 -434 245 -434q186 0 224 274h81q-14 -161 -106 -257q-72 -72 -166 -76l-55 -109 q172 -21 172 -138q0 -71 -58 -114q-51 -36 -130 -36q-71 0 -147 32v58q68 -18 104 -18q43 0 69 16q41 25 41 75q0 53 -58 75q-32 12 -100 16l74 141q-121 30 -185 87q-150 134 -150 408z" />
<glyph unicode="&#xe8;" horiz-adv-x="921" d="M87 476q0 239 107 379q103 135 280 135q143 0 237 -88q122 -114 121 -384h-618q0 -191 41 -300q66 -175 238 -175q154 0 222 136q27 55 38 139h82q-11 -113 -67 -200q-91 -139 -274 -139q-197 0 -300 127q-107 131 -107 370zM182 1438h163l231 -308h-92zM220 591h486 q-6 111 -30 182q-57 165 -205 165q-155 0 -222 -202q-20 -61 -29 -145z" />
<glyph unicode="&#xe9;" horiz-adv-x="921" d="M87 476q0 239 107 379q103 135 280 135q143 0 237 -88q122 -114 121 -384h-618q0 -191 41 -300q66 -175 238 -175q154 0 222 136q27 55 38 139h82q-11 -113 -67 -200q-91 -139 -274 -139q-197 0 -300 127q-107 131 -107 370zM220 591h486q-6 111 -30 182 q-57 165 -205 165q-155 0 -222 -202q-20 -61 -29 -145zM373 1130l231 308h163l-302 -308h-92z" />
<glyph unicode="&#xea;" horiz-adv-x="921" d="M87 476q0 239 107 379q103 135 280 135q143 0 237 -88q122 -114 121 -384h-618q0 -191 41 -300q66 -175 238 -175q154 0 222 136q27 55 38 139h82q-11 -113 -67 -200q-91 -139 -274 -139q-197 0 -300 127q-107 131 -107 370zM166 1142l244 285h129l244 -285h-98l-211 188 l-210 -188h-98zM220 591h486q-6 111 -30 182q-57 165 -205 165q-155 0 -222 -202q-20 -61 -29 -145z" />
<glyph unicode="&#xeb;" horiz-adv-x="921" d="M87 476q0 239 107 379q103 135 280 135q143 0 237 -88q122 -114 121 -384h-618q0 -191 41 -300q66 -175 238 -175q154 0 222 136q27 55 38 139h82q-11 -113 -67 -200q-91 -139 -274 -139q-197 0 -300 127q-107 131 -107 370zM200 1262q0 42 29 70t70 28q39 0 67 -28 q29 -29 29 -69q0 -41 -29 -69q-28 -29 -68 -29q-41 0 -69 29q-29 28 -29 68zM220 591h486q-6 111 -30 182q-57 165 -205 165q-155 0 -222 -202q-20 -61 -29 -145zM555 1262q0 42 29 70t70 28q39 0 67 -28q29 -29 29 -69q0 -41 -29 -69q-28 -29 -68 -29q-41 0 -69 29 q-29 28 -29 68z" />
<glyph unicode="&#xec;" horiz-adv-x="539" d="M-8 1438h156l204 -308h-92zM64 -6v35q58 2 96 13q40 12 47 43q4 14 4 48v682q0 63 -15 83q-24 26 -130 27v29q153 15 272 47v-868q0 -51 14 -70q21 -29 133 -34v-35q-131 12 -211 12q-79 0 -210 -12z" />
<glyph unicode="&#xed;" horiz-adv-x="539" d="M64 -6v35q58 2 96 13q40 12 47 43q4 14 4 48v682q0 63 -15 83q-24 26 -130 27v29q152 15 272 47v-868q0 -51 14 -70q21 -29 133 -34v-35q-131 12 -210 12q-80 0 -211 -12zM161 1130l204 308h156l-268 -308h-92z" />
<glyph unicode="&#xee;" horiz-adv-x="539" d="M-27 1142l216 285h129l216 -285h-97l-183 188l-183 -188h-98zM64 -6v35q58 2 96 13q40 12 47 43q4 14 4 48v682q0 63 -15 83q-24 26 -130 27v29q153 15 272 47v-868q0 -51 14 -70q21 -29 133 -34v-35q-131 12 -211 12q-79 0 -210 -12z" />
<glyph unicode="&#xef;" horiz-adv-x="539" d="M13 1259q0 40 28 67q28 28 68 28q37 0 65 -28q28 -27 28 -66q0 -40 -28 -67q-27 -28 -67 -28q-39 0 -66 28q-28 28 -28 66zM64 -6v35q58 2 96 13q39 12 47 43q4 14 4 48v682q0 63 -15 83q-24 26 -130 27v29q153 15 272 47v-868q0 -51 14 -70q21 -29 133 -34v-35 q-132 12 -211 12t-210 -12zM297 1259q0 40 28 67q28 28 68 28q37 0 65 -28q28 -27 28 -66q0 -40 -28 -67q-28 -28 -66 -28q-40 0 -67 28q-28 27 -28 66z" />
<glyph unicode="&#xf0;" horiz-adv-x="934" d="M87 493q0 214 101 348q108 143 285 143q30 0 69 -7l-112 168l-153 -95l-35 55l152 95l-96 145l45 30l107 -137l162 102l37 -56l-157 -98l180 -229q88 -111 123 -198q52 -129 52 -290q0 -200 -92 -336q-101 -150 -284 -150q-169 0 -276 140q-108 142 -108 370zM223 508 q0 -209 54 -335q30 -71 91 -110q45 -29 103 -29q99 0 162 83q78 104 78 338q0 478 -250 478q-90 0 -153 -77q-85 -105 -85 -348z" />
<glyph unicode="&#xf1;" horiz-adv-x="1085" d="M64 -6v35q58 2 96 13q40 12 47 43q4 14 4 48v664q-1 87 -16 103q-19 14 -127 18v28q142 21 246 62q9 -60 14 -181q104 157 267 157t247 -128q49 -74 49 -223v-500q0 -51 14 -70q21 -30 133 -34v-35q-132 12 -213 12t-212 -12v35q58 1 99 13q40 12 47 43q4 14 4 48v497 q0 132 -33 186q-50 81 -161 81q-116 0 -184 -88q-47 -60 -47 -188v-488q0 -51 14 -70q21 -29 133 -34v-35q-132 12 -211 12t-210 -12zM225 1203q23 107 62 147q46 47 118 47q50 0 89 -25q23 -14 86 -67q43 -36 89 -36q94 0 112 109l52 -11q-13 -108 -64 -155 q-50 -46 -115 -46q-40 0 -75 17q-28 14 -86 64q-54 47 -100 47q-89 0 -113 -106z" />
<glyph unicode="&#xf2;" horiz-adv-x="934" d="M87 480q0 229 110 368q108 136 283 136q167 0 266 -141q101 -145 101 -358q0 -215 -102 -359q-48 -68 -121.5 -105.5t-157.5 -37.5q-177 0 -281 147q-98 139 -98 350zM190 1438h162l232 -308h-92zM224 481q0 -188 46 -303q28 -71 87 -112q46 -32 107 -32q96 0 159 79 q87 109 87 367q0 453 -243 453q-86 0 -149 -73q-94 -110 -94 -379z" />
<glyph unicode="&#xf3;" horiz-adv-x="934" d="M87 480q0 229 110 368q108 136 283 136q167 0 266 -141q101 -145 101 -358q0 -215 -102 -359q-48 -68 -121.5 -105.5t-157.5 -37.5q-177 0 -281 147q-98 139 -98 350zM224 481q0 -188 46 -303q28 -71 87 -112q46 -32 107 -32q96 0 159 79q87 109 87 367q0 453 -243 453 q-86 0 -149 -73q-94 -110 -94 -379zM366 1130l231 308h163l-302 -308h-92z" />
<glyph unicode="&#xf4;" horiz-adv-x="934" d="M87 480q0 229 110 368q108 136 283 136q167 0 266 -141q101 -145 101 -358q0 -215 -102 -359q-48 -68 -121.5 -105.5t-157.5 -37.5q-177 0 -281 147q-98 139 -98 350zM159 1142l244 285h129l243 -285h-97l-211 188l-210 -188h-98zM224 481q0 -188 46 -303q28 -71 87 -112 q46 -32 107 -32q96 0 159 79q87 109 87 367q0 453 -243 453q-86 0 -149 -73q-94 -110 -94 -379z" />
<glyph unicode="&#xf5;" horiz-adv-x="934" d="M87 480q0 229 110 368q108 136 283 136q167 0 266 -141q101 -145 101 -358q0 -215 -102 -359q-48 -68 -121.5 -105.5t-157.5 -37.5q-177 0 -281 147q-98 139 -98 350zM177 1203q23 107 62 147q46 47 118 47q50 0 89 -25q23 -14 86 -67q43 -36 89 -36q94 0 112 109l52 -11 q-13 -108 -64 -155q-50 -46 -115 -46q-40 0 -75 17q-28 14 -86 64q-54 47 -100 47q-89 0 -113 -106zM224 481q0 -188 46 -303q28 -71 87 -112q46 -32 107 -32q96 0 159 79q87 109 87 367q0 453 -243 453q-86 0 -149 -73q-94 -110 -94 -379z" />
<glyph unicode="&#xf6;" horiz-adv-x="934" d="M87 482q0 231 110 371q108 137 283 137q168 0 266 -142q101 -147 101 -361q0 -217 -102 -363q-48 -68 -121.5 -106t-157.5 -38q-177 0 -281 148q-98 141 -98 354zM192 1262q0 42 29 70t70 28q39 0 67 -28q29 -29 29 -69q0 -41 -29 -69q-28 -29 -68 -29q-41 0 -69 29 q-29 28 -29 68zM224 482q0 -189 46 -305q28 -71 87 -113q46 -32 107 -32q96 0 159 80q87 110 87 369q0 457 -243 457q-86 0 -149 -74q-94 -111 -94 -382zM548 1262q0 42 29 70t70 28q39 0 67 -28q29 -29 29 -69q0 -41 -29 -69q-28 -29 -69 -29q-40 0 -68 29q-29 28 -29 68z " />
<glyph unicode="&#xf7;" d="M116 640v102h826v-102h-826zM435 430q0 40 27 67q28 27 68 27q37 0 65 -27q27 -28 27 -66q0 -39 -27 -66q-28 -28 -66 -28q-39 0 -67 28q-27 27 -27 65zM435 951q0 40 27 67q28 27 68 27q37 0 65 -27q27 -28 27 -66q0 -39 -27 -67q-28 -27 -66 -27q-39 0 -67 27 q-27 28 -27 66z" />
<glyph unicode="&#xf8;" horiz-adv-x="933" d="M41 0l121 155q-76 132 -76 308q0 248 127 397q104 124 267 124q146 0 245 -106l68 89h85l-112 -145q81 -135 81 -320q0 -235 -119 -388q-102 -131 -267 -131q-156 0 -258 116l-78 -99h-84zM208 449q0 -109 30 -202l427 562q-62 124 -187 124q-170 0 -236 -223 q-34 -112 -34 -261zM262 169q62 -135 194 -135q67 0 122.5 39.5t86.5 108.5q59 134 59 327q0 132 -33 221z" />
<glyph unicode="&#xf9;" horiz-adv-x="1063" d="M35 925v29q152 15 273 47v-675q0 -128 36 -182q49 -74 162 -74q125 0 185 88q44 64 44 204v453q0 63 -15 83q-24 26 -130 27v29q153 15 272 47v-840q0 -50 9 -68q13 -29 73 -32q28 -2 69 -2v-28q-149 -13 -256 -48l-8 188q-38 -76 -80 -116q-76 -72 -193 -72 q-165 0 -246 115q-50 71 -50 226v491q0 63 -15 83q-24 26 -130 27zM227 1438h162l232 -308h-92z" />
<glyph unicode="&#xfa;" horiz-adv-x="1063" d="M35 925v29q152 15 273 47v-675q0 -128 36 -182q49 -74 162 -74q125 0 185 88q44 64 44 204v453q0 63 -15 83q-24 26 -130 27v29q153 15 272 47v-840q0 -50 9 -68q13 -29 73 -32q28 -2 69 -2v-28q-149 -13 -256 -48l-8 188q-38 -76 -80 -116q-76 -72 -193 -72 q-165 0 -246 115q-50 71 -50 226v491q0 63 -15 83q-24 26 -130 27zM410 1130l231 308h163l-303 -308h-91z" />
<glyph unicode="&#xfb;" horiz-adv-x="1063" d="M35 925v29q152 15 273 47v-675q0 -128 36 -182q49 -74 162 -74q125 0 185 88q44 64 44 204v453q0 63 -15 83q-24 26 -130 27v29q153 15 272 47v-840q0 -50 9 -68q13 -29 73 -32q28 -2 69 -2v-28q-149 -13 -256 -48l-8 188q-38 -76 -80 -116q-76 -72 -193 -72 q-165 0 -246 115q-50 71 -50 226v491q0 63 -15 83q-24 26 -130 27zM210 1142l243 285h130l243 -285h-98l-210 188l-210 -188h-98z" />
<glyph unicode="&#xfc;" horiz-adv-x="1063" d="M35 925v29q152 15 273 47v-675q0 -128 36 -182q49 -74 162 -74q125 0 185 88q44 64 44 204v453q0 63 -15 83q-24 26 -130 27v29q153 15 272 47v-840q0 -50 9 -68q13 -29 73 -32q28 -2 69 -2v-28q-149 -13 -256 -48l-8 188q-38 -76 -80 -116q-76 -72 -193 -72 q-165 0 -246 115q-50 71 -50 226v491q0 63 -15 83q-24 26 -130 27zM243 1262q0 42 29 70t70 28q39 0 67 -28q29 -29 29 -69q0 -41 -29 -69q-29 -29 -68 -29q-41 0 -69 29q-29 28 -29 68zM598 1262q0 42 29 70t70 28q39 0 67 -28q29 -29 29 -69q0 -41 -29 -69 q-28 -29 -69 -29q-40 0 -68 29q-29 28 -29 68z" />
<glyph unicode="&#xfd;" horiz-adv-x="994" d="M15 939v34q107 -10 190 -10t190 10v-34q-32 -3 -58 -7q-49 -8 -49 -37q0 -13 14 -52l231 -633l236 631q13 35 13 49q0 34 -46 42q-28 5 -73 7v34q73 -8 147 -8q80 0 181 8v-34q-53 -7 -83 -15q-49 -16 -68 -68l-382 -1026q-30 -82 -65.5 -128.5t-86.5 -70.5 q-61 -29 -150 -28v99q81 1 135 30q71 37 119 155l58 148l-301 824q-22 57 -60 69q-29 7 -92 11zM410 1130l231 308h163l-303 -308h-91z" />
<glyph unicode="&#xfe;" horiz-adv-x="1044" d="M53 -377q61 3 96 13q40 12 47 44q4 13 4 48v1468q0 63 -15 82q-24 28 -130 28v29q154 15 272 47v-561q90 163 259 163q165 0 269 -140q103 -141 103 -359q0 -215 -98 -355q-103 -147 -271 -147q-114 0 -186 72q-39 40 -76 112v-439q0 -52 14 -70q23 -29 132 -35v-34 q-134 12 -209 12t-211 -12v34zM325 500q0 -197 55 -323q60 -137 197 -137q244 0 244 443q0 187 -50 301q-29 67 -83.5 105t-120.5 38q-83 0 -149 -70q-93 -98 -93 -357z" />
<glyph unicode="&#xff;" horiz-adv-x="994" d="M15 939v34q107 -10 190 -10t190 10v-34q-32 -3 -58 -7q-49 -8 -49 -37q0 -13 14 -52l231 -633l236 631q13 35 13 49q0 34 -46 42q-28 5 -73 7v34q73 -8 147 -8q80 0 181 8v-34q-53 -7 -83 -15q-49 -16 -68 -68l-382 -1026q-30 -82 -65.5 -128.5t-86.5 -70.5 q-61 -29 -150 -28v99q81 1 135 30q71 37 119 155l58 148l-301 824q-22 57 -60 69q-29 7 -92 11zM250 1262q0 42 29 70t70 28q39 0 67 -28q29 -29 29 -69q0 -41 -29 -69q-28 -29 -68 -29q-41 0 -69 29q-29 28 -29 68zM605 1262q0 42 29 70t70 28q39 0 67 -28q29 -29 29 -69 q0 -41 -29 -69q-28 -29 -69 -29q-39 0 -68 29q-29 28 -29 68z" />
<glyph unicode="&#x152;" horiz-adv-x="1848" d="M103 690q0 274 115 464q64 107 170 170q107 64 235 64q201 0 333 -151q28 -32 58 -77v205h692l28 -287h-40q-27 103 -59 153q-29 46 -70 63q-34 14 -100 14h-330v-569h334q56 0 77 18q38 35 42 150h41v-396h-41q-1 70 -19 113q-24 57 -100 58h-334v-499q0 -57 11 -76 q26 -49 149 -50h160q87 0 127 17q84 29 133 237h40l-40 -311h-701v202q-142 -225 -385 -225q-171 0 -306 113q-124 104 -181 303q-39 136 -39 297zM251 688q0 -256 80 -434q43 -96 121 -158q80 -64 188 -64q147 0 242 122q74 94 109 269q24 121 24 257q0 253 -77 429 q-98 224 -312 224q-142 0 -243 -125q-132 -166 -132 -520z" />
<glyph unicode="&#x153;" horiz-adv-x="1536" d="M87 482q0 224 110 366q106 136 279 136q193 0 296 -181q114 181 315 181q140 0 235 -92q125 -120 125 -401h-617q5 -182 39 -272q68 -173 239 -173q154 0 222 134q27 55 38 138h81q-10 -112 -67 -197q-94 -138 -283 -138q-221 0 -328 182q-111 -182 -305 -182 q-177 0 -281 147q-98 139 -98 352zM224 481q0 -189 46 -303q28 -71 88 -112q46 -32 107 -32q95 0 159 79q87 109 87 367q0 453 -243 453q-87 0 -149 -73q-95 -110 -95 -379zM832 564h490q-13 369 -236 369q-160 0 -222 -200q-20 -64 -32 -169z" />
<glyph unicode="&#x178;" horiz-adv-x="1185" d="M26 1331v40q138 -14 234 -14t234 14v-40q-50 -3 -89 -10q-58 -10 -58 -45q0 -16 19 -53l276 -548l277 557q14 28 14 45q0 35 -58 45q-35 6 -86 9v40q110 -12 188 -12q77 0 187 12v-40q-71 -9 -103 -20q-48 -18 -81 -84l-314 -629v-431q0 -64 10 -81q29 -43 157 -52v-40 q-155 16 -236 16q-82 0 -235 -16v40q79 7 118 23q43 19 47 58q2 13 2 52v431l-317 631q-35 68 -80 85q-33 11 -106 17zM345 1627q0 44 31 74q31 31 75 31q42 0 73 -31q30 -30 30 -73q0 -44 -30 -74q-31 -31 -74 -31q-44 0 -74 31q-31 30 -31 73zM705 1627q0 44 31 74 q31 31 75 31q42 0 72 -31q31 -30 31 -73q0 -44 -31 -74q-30 -31 -73 -31q-44 0 -74 31q-31 30 -31 73z" />
<glyph unicode="&#x2c6;" horiz-adv-x="1024" d="M204 1142l243 285h130l243 -285h-98l-210 188l-210 -188h-98z" />
<glyph unicode="&#x2dc;" horiz-adv-x="1024" d="M208 1203q23 107 62 147q46 47 118 47q50 0 89 -25q23 -14 86 -67q43 -36 89 -36q94 0 112 109l52 -11q-13 -108 -64 -155q-50 -46 -115 -46q-40 0 -75 17q-28 14 -86 64q-54 47 -100 47q-89 0 -113 -106z" />
<glyph unicode="&#x2000;" horiz-adv-x="897" />
<glyph unicode="&#x2001;" horiz-adv-x="1794" />
<glyph unicode="&#x2002;" horiz-adv-x="897" />
<glyph unicode="&#x2003;" horiz-adv-x="1794" />
<glyph unicode="&#x2004;" horiz-adv-x="598" />
<glyph unicode="&#x2005;" horiz-adv-x="448" />
<glyph unicode="&#x2006;" horiz-adv-x="299" />
<glyph unicode="&#x2007;" horiz-adv-x="299" />
<glyph unicode="&#x2008;" horiz-adv-x="224" />
<glyph unicode="&#x2009;" horiz-adv-x="358" />
<glyph unicode="&#x200a;" horiz-adv-x="99" />
<glyph unicode="&#x2010;" horiz-adv-x="518" d="M0 516v86h518v-86h-518z" />
<glyph unicode="&#x2011;" horiz-adv-x="518" d="M0 516v86h518v-86h-518z" />
<glyph unicode="&#x2012;" horiz-adv-x="518" d="M0 516v86h518v-86h-518z" />
<glyph unicode="&#x2013;" d="M188 516v86h681v-86h-681z" />
<glyph unicode="&#x2014;" horiz-adv-x="1146" d="M0 516v86h1146v-86h-1146z" />
<glyph unicode="&#x2018;" horiz-adv-x="491" d="M118 1032q0 150 154 342h101q-59 -58 -110 -139q-51 -84 -57 -144h7q16 6 30 6q33 0 56 -21q27 -25 27 -66q0 -40 -29 -67q-29 -28 -73 -28q-54 0 -83 37q-23 31 -23 80z" />
<glyph unicode="&#x2019;" horiz-adv-x="491" d="M118 929q60 59 110 139q51 84 57 144h-7q-15 -6 -29 -6q-34 0 -57 21q-27 25 -27 66q0 40 29 67q29 28 73 28q54 0 83 -37q23 -31 23 -80q0 -149 -154 -342h-101z" />
<glyph unicode="&#x201a;" horiz-adv-x="491" d="M118 -294q60 59 110 139q51 85 57 145h-7q-15 -6 -29 -6q-34 0 -57 21q-27 25 -27 66q0 40 29 67q29 28 73 28q54 0 83 -37q23 -31 23 -80q0 -149 -154 -343h-101z" />
<glyph unicode="&#x201c;" horiz-adv-x="790" d="M120 1032q0 150 154 342h101q-59 -58 -110 -139q-51 -84 -57 -144h7q16 6 30 6q33 0 56 -21q27 -25 27 -66q0 -40 -29 -67q-29 -28 -73 -28q-54 0 -83 37q-23 31 -23 80zM419 1032q0 149 154 342h101q-59 -58 -109 -139q-52 -84 -58 -144h7q16 6 30 6q34 0 56 -21 q27 -25 27 -66q0 -40 -29 -67q-29 -28 -73 -28q-54 0 -83 37q-23 31 -23 80z" />
<glyph unicode="&#x201d;" horiz-adv-x="790" d="M118 929q60 59 110 139q51 84 57 144h-7q-15 -6 -29 -6q-34 0 -57 21q-27 25 -27 66q0 40 29 67q29 28 73 28q54 0 83 -37q23 -31 23 -80q0 -149 -154 -342h-101zM417 929q60 59 110 139q52 84 58 144h-8q-15 -6 -29 -6q-34 0 -56 21q-27 25 -27 66q0 40 29 67 q29 28 73 28q54 0 83 -37q23 -31 23 -80q0 -148 -154 -342h-102z" />
<glyph unicode="&#x201e;" horiz-adv-x="790" d="M118 -294q60 59 110 139q51 85 57 145h-7q-15 -6 -29 -6q-34 0 -57 21q-27 25 -27 66q0 40 29 67q29 28 73 28q54 0 83 -37q23 -31 23 -80q0 -149 -154 -343h-101zM417 -294q60 59 110 139q52 85 58 145h-8q-15 -6 -29 -6q-34 0 -56 21q-27 25 -27 66q0 40 29 67 q29 28 73 28q54 0 83 -37q23 -31 23 -80q0 -148 -154 -343h-102z" />
<glyph unicode="&#x2022;" horiz-adv-x="1365" d="M401 694q0 121 84 202q86 82 204 82q113 0 196 -83q84 -83 84 -201t-83 -201t-201 -83q-116 0 -199 82q-85 84 -85 202z" />
<glyph unicode="&#x2026;" horiz-adv-x="1335" d="M123 82q0 42 29 71q30 29 72 29q40 0 69 -29t29 -70q0 -42 -29 -71t-70 -29t-71 29q-29 30 -29 70zM568 82q0 42 29 71q30 29 72 29q40 0 69 -29t29 -70q0 -42 -29 -71t-70 -29q-42 0 -71 29q-29 30 -29 70zM1013 82q0 42 29 71q30 29 72 29q40 0 69 -29t29 -70 q0 -42 -29 -71t-70 -29t-71 29q-29 29 -29 70z" />
<glyph unicode="&#x202f;" horiz-adv-x="358" />
<glyph unicode="&#x2039;" horiz-adv-x="528" d="M121 489l228 478h68l-177 -478l177 -489h-68z" />
<glyph unicode="&#x203a;" horiz-adv-x="538" d="M121 0l177 489l-177 478h68l228 -478l-228 -489h-68z" />
<glyph unicode="&#x205f;" horiz-adv-x="448" />
<glyph unicode="&#x2122;" horiz-adv-x="1725" d="M32 1182l35 183h544l36 -183h-39q-21 67 -38 94q-17 26 -39 35q-18 7 -57 7h-89v-667q0 -35 5 -44q17 -23 99 -28v-37q-104 10 -153 10t-153 -10v37q52 4 78 13q23 10 25 30q1 7 1 29v667h-73q-72 0 -101 -40q-19 -29 -42 -96h-39zM732 543v37q57 3 78 13q22 9 26 59 l32 608v11q0 37 -27 48q-23 9 -77 13v37q59 -5 95 -5q57 0 115 7l235 -629l238 629q76 -7 115 -7q36 0 95 5v-37q-44 -3 -66 -9q-38 -11 -38 -44l1 -19l14 -608q1 -34 7 -44q13 -23 96 -28v-38q-104 10 -152 10q-49 0 -153 -10v38q48 2 77 13q27 10 27 46l-1 13l-10 605 l-258 -687h-26l-255 683l-29 -601v-10q0 -37 26 -49q24 -10 77 -13v-37q-88 7 -131 7t-131 -7z" />
<glyph unicode="&#xe000;" horiz-adv-x="975" d="M0 0v975h975v-975h-975z" />
</font>
</defs>
</svg>
